# MagicaVoxel @ ephtracy

# material
mtllib blah.mtl

# normals
vn -1 0 0
vn 1 0 0
vn 0 0 1
vn 0 0 -1
vn 0 -1 0
vn 0 1 0

# texcoords
vt 0.306641 0.5
vt 0.822266 0.5
vt 0.880859 0.5

# verts
v -5 0 1
v -5 1 1
v -5 1 -0
v -5 0 -0
v -5 0 -2
v -5 1 -2
v -5 1 -3
v -5 0 -3
v -5 0 4
v -5 1 4
v -5 1 3
v -5 0 3
v -5 0 2
v -5 1 2
v -5 0 -1
v -5 1 -1
v -5 0 -4
v -5 1 -4
v -5 1 -5
v -5 0 -5
v -5 0 5
v -5 1 5
v -3 1 2
v -3 2 2
v -3 2 1
v -3 1 1
v -1 5 -0
v -1 6 -0
v -1 6 -1
v -1 5 -1
v -2 4 -0
v -2 5 -0
v -2 5 -1
v -2 4 -1
v 1 1 2
v 1 2 2
v 1 2 1
v 1 1 1
v -3 2 -0
v -3 1 -0
v -3 2 -1
v -3 1 -1
v -3 2 -2
v -3 1 -2
v -3 3 2
v -3 3 1
v -1 5 1
v -1 6 1
v 1 3 2
v 1 3 1
v -3 3 -0
v -3 3 -1
v -3 3 -2
v -3 4 2
v -3 4 1
v -3 4 -0
v -3 4 -1
v -3 4 -2
v -2 4 1
v -2 5 1
v 5 0 -2
v 5 0 -3
v 5 1 -3
v 5 1 -2
v 5 0 1
v 5 0 -0
v 5 1 -0
v 5 1 1
v 5 0 -1
v 5 1 -1
v 5 0 4
v 5 0 3
v 5 1 3
v 5 1 4
v 5 0 2
v 5 1 2
v 5 0 -4
v 5 0 -5
v 5 1 -5
v 5 1 -4
v 5 0 5
v 5 1 5
v -2 1 2
v -2 1 1
v -2 2 1
v -2 2 2
v 1 4 -0
v 1 4 -1
v 1 5 -1
v 1 5 -0
v 0 5 -0
v 0 5 -1
v 0 6 -1
v 0 6 -0
v 2 1 2
v 2 1 1
v 2 2 1
v 2 2 2
v 2 1 -0
v 2 2 -0
v 2 1 -1
v 2 2 -1
v 2 1 -2
v 2 2 -2
v -2 3 1
v -2 3 2
v 0 5 1
v 0 6 1
v 1 4 1
v 1 5 1
v 2 3 1
v 2 3 2
v 2 3 -0
v 2 3 -1
v 2 3 -2
v 2 4 1
v 2 4 2
v 2 4 -0
v 2 4 -1
v 2 4 -2
v -4 0 5
v -4 1 5
v -3 0 5
v -3 1 5
v -2 0 5
v -2 1 5
v -1 0 5
v -1 1 5
v 0 0 5
v 0 1 5
v 1 0 5
v 1 1 5
v 2 0 5
v 2 1 5
v 3 0 5
v 3 1 5
v 4 0 5
v 4 1 5
v -1 1 1
v -1 2 1
v 0 1 1
v 0 2 1
v 0 4 1
v -1 3 1
v 0 3 1
v -2 4 2
v -1 3 2
v -1 4 2
v 0 3 2
v 0 4 2
v 1 4 2
v -1 4 1
v 4 0 -5
v 4 1 -5
v 3 0 -5
v 3 1 -5
v 2 0 -5
v 2 1 -5
v 1 0 -5
v 1 1 -5
v 0 0 -5
v 0 1 -5
v -1 0 -5
v -1 1 -5
v -2 0 -5
v -2 1 -5
v -3 0 -5
v -3 1 -5
v -4 0 -5
v -4 1 -5
v 0 4 -1
v -1 4 -1
v -2 2 -2
v -2 1 -2
v -1 2 -2
v -1 1 -2
v 0 2 -2
v 0 1 -2
v 1 2 -2
v 1 1 -2
v -2 3 -2
v -1 3 -2
v 0 3 -2
v 1 3 -2
v -2 4 -2
v -1 4 -2
v 0 4 -2
v 1 4 -2
v 4 0 -2
v 4 0 -3
v 3 0 -2
v 3 0 -3
v -4 0 -0
v -4 0 1
v -3 0 -0
v -3 0 1
v -2 0 -0
v -2 0 1
v -1 0 -0
v -1 0 1
v 0 0 -0
v 0 0 1
v 1 0 -0
v 1 0 1
v 2 0 -0
v 2 0 1
v 3 0 -0
v 3 0 1
v 4 0 -0
v 4 0 1
v 2 0 -2
v 2 0 -3
v 1 0 -2
v 1 0 -3
v 0 0 -2
v 0 0 -3
v -1 0 -2
v -1 0 -3
v -2 0 -2
v -2 0 -3
v -3 0 -2
v -3 0 -3
v -4 0 -2
v -4 0 -3
v 4 0 -1
v 3 0 -1
v 2 0 -1
v 1 0 -1
v 0 0 -1
v -1 0 -1
v -2 0 -1
v -4 0 3
v -4 0 4
v -3 0 3
v -3 0 4
v -2 0 3
v -2 0 4
v -1 0 3
v -1 0 4
v 0 0 3
v 0 0 4
v 1 0 3
v 1 0 4
v 2 0 3
v 2 0 4
v 3 0 3
v 3 0 4
v 4 0 3
v 4 0 4
v -4 0 2
v -3 0 2
v -2 0 2
v -1 0 2
v 0 0 2
v 1 0 2
v 2 0 2
v 3 0 2
v 4 0 2
v -3 0 -1
v -4 0 -1
v 4 0 -4
v 3 0 -4
v 2 0 -4
v 1 0 -4
v 0 0 -4
v -1 0 -4
v -2 0 -4
v -3 0 -4
v -4 0 -4
v 4 1 -2
v 4 1 -3
v 3 1 -2
v 3 1 -3
v -4 1 1
v -4 1 -0
v 3 1 1
v 3 1 -0
v 4 1 1
v 4 1 -0
v 2 1 -3
v 1 1 -3
v 0 1 -3
v -1 1 -3
v -2 1 -3
v -3 1 -3
v -4 1 -2
v -4 1 -3
v 4 1 -1
v 3 1 -1
v -4 1 4
v -4 1 3
v -3 1 4
v -3 1 3
v -2 1 4
v -2 1 3
v -1 1 4
v -1 1 3
v 0 1 4
v 0 1 3
v 1 1 4
v 1 1 3
v 2 1 4
v 2 1 3
v 3 1 4
v 3 1 3
v 4 1 4
v 4 1 3
v -4 1 2
v -1 1 2
v 0 1 2
v 3 1 2
v 4 1 2
v -4 1 -1
v 4 1 -4
v 3 1 -4
v 2 1 -4
v 1 1 -4
v 0 1 -4
v -1 1 -4
v -2 1 -4
v -3 1 -4
v -4 1 -4

# faces

usemtl palette

f 1/1/1 2/1/1 3/1/1 4/1/1

f 5/1/1 6/1/1 7/1/1 8/1/1

f 9/1/1 10/1/1 11/1/1 12/1/1

f 13/1/1 14/1/1 2/1/1 1/1/1

f 15/1/1 16/1/1 6/1/1 5/1/1

f 4/1/1 3/1/1 16/1/1 15/1/1

f 17/1/1 18/1/1 19/1/1 20/1/1

f 12/1/1 11/1/1 14/1/1 13/1/1

f 21/1/1 22/1/1 10/1/1 9/1/1

f 8/1/1 7/1/1 18/1/1 17/1/1

f 23/3/1 24/3/1 25/3/1 26/3/1

f 27/2/1 28/2/1 29/2/1 30/2/1

f 31/2/1 32/2/1 33/2/1 34/2/1

f 35/3/1 36/3/1 37/3/1 38/3/1

f 26/2/1 25/2/1 39/2/1 40/2/1

f 40/2/1 39/2/1 41/2/1 42/2/1

f 42/3/1 41/3/1 43/3/1 44/3/1

f 24/3/1 45/3/1 46/3/1 25/3/1

f 47/2/1 48/2/1 28/2/1 27/2/1

f 36/3/1 49/3/1 50/3/1 37/3/1

f 25/2/1 46/2/1 51/2/1 39/2/1

f 39/2/1 51/2/1 52/2/1 41/2/1

f 41/3/1 52/3/1 53/3/1 43/3/1

f 45/3/1 54/3/1 55/3/1 46/3/1

f 46/3/1 55/3/1 56/3/1 51/3/1

f 51/3/1 56/3/1 57/3/1 52/3/1

f 52/3/1 57/3/1 58/3/1 53/3/1

f 59/2/1 60/2/1 32/2/1 31/2/1

f 61/1/2 62/1/2 63/1/2 64/1/2

f 65/1/2 66/1/2 67/1/2 68/1/2

f 69/1/2 61/1/2 64/1/2 70/1/2

f 71/1/2 72/1/2 73/1/2 74/1/2

f 75/1/2 65/1/2 68/1/2 76/1/2

f 66/1/2 69/1/2 70/1/2 67/1/2

f 77/1/2 78/1/2 79/1/2 80/1/2

f 62/1/2 77/1/2 80/1/2 63/1/2

f 72/1/2 75/1/2 76/1/2 73/1/2

f 81/1/2 71/1/2 74/1/2 82/1/2

f 83/3/2 84/3/2 85/3/2 86/3/2

f 87/2/2 88/2/2 89/2/2 90/2/2

f 91/2/2 92/2/2 93/2/2 94/2/2

f 95/3/2 96/3/2 97/3/2 98/3/2

f 96/2/2 99/2/2 100/2/2 97/2/2

f 99/2/2 101/2/2 102/2/2 100/2/2

f 101/3/2 103/3/2 104/3/2 102/3/2

f 86/3/2 85/3/2 105/3/2 106/3/2

f 107/2/2 91/2/2 94/2/2 108/2/2

f 109/2/2 87/2/2 90/2/2 110/2/2

f 98/3/2 97/3/2 111/3/2 112/3/2

f 97/2/2 100/2/2 113/2/2 111/2/2

f 100/2/2 102/2/2 114/2/2 113/2/2

f 102/3/2 104/3/2 115/3/2 114/3/2

f 112/3/2 111/3/2 116/3/2 117/3/2

f 111/3/2 113/3/2 118/3/2 116/3/2

f 113/3/2 114/3/2 119/3/2 118/3/2

f 114/3/2 115/3/2 120/3/2 119/3/2

f 21/1/3 121/1/3 122/1/3 22/1/3

f 121/1/3 123/1/3 124/1/3 122/1/3

f 123/1/3 125/1/3 126/1/3 124/1/3

f 125/1/3 127/1/3 128/1/3 126/1/3

f 127/1/3 129/1/3 130/1/3 128/1/3

f 129/1/3 131/1/3 132/1/3 130/1/3

f 131/1/3 133/1/3 134/1/3 132/1/3

f 133/1/3 135/1/3 136/1/3 134/1/3

f 135/1/3 137/1/3 138/1/3 136/1/3

f 137/1/3 81/1/3 82/1/3 138/1/3

f 23/3/3 83/3/3 86/3/3 24/3/3

f 35/3/3 95/3/3 98/3/3 36/3/3

f 84/2/3 139/2/3 140/2/3 85/2/3

f 139/2/3 141/2/3 142/2/3 140/2/3

f 141/2/3 38/2/3 37/2/3 142/2/3

f 24/3/3 86/3/3 106/3/3 45/3/3

f 47/2/3 107/2/3 108/2/3 48/2/3

f 143/2/3 109/2/3 110/2/3 107/2/3

f 36/3/3 98/3/3 112/3/3 49/3/3

f 85/2/3 140/2/3 144/2/3 105/2/3

f 140/2/3 142/2/3 145/2/3 144/2/3

f 142/2/3 37/2/3 50/2/3 145/2/3

f 45/3/3 106/3/3 146/3/3 54/3/3

f 106/3/3 147/3/3 148/3/3 146/3/3

f 147/3/3 149/3/3 150/3/3 148/3/3

f 149/3/3 49/3/3 151/3/3 150/3/3

f 49/3/3 112/3/3 117/3/3 151/3/3

f 59/2/3 152/2/3 47/2/3 60/2/3

f 152/2/3 143/2/3 107/2/3 47/2/3

f 153/1/4 154/1/4 79/1/4 78/1/4

f 155/1/4 156/1/4 154/1/4 153/1/4

f 157/1/4 158/1/4 156/1/4 155/1/4

f 159/1/4 160/1/4 158/1/4 157/1/4

f 161/1/4 162/1/4 160/1/4 159/1/4

f 163/1/4 164/1/4 162/1/4 161/1/4

f 165/1/4 166/1/4 164/1/4 163/1/4

f 167/1/4 168/1/4 166/1/4 165/1/4

f 169/1/4 170/1/4 168/1/4 167/1/4

f 20/1/4 19/1/4 170/1/4 169/1/4

f 171/2/4 92/2/4 89/2/4 88/2/4

f 30/2/4 29/2/4 93/2/4 92/2/4

f 34/2/4 33/2/4 30/2/4 172/2/4

f 44/3/4 43/3/4 173/3/4 174/3/4

f 174/2/4 173/2/4 175/2/4 176/2/4

f 176/2/4 175/2/4 177/2/4 178/2/4

f 178/2/4 177/2/4 179/2/4 180/2/4

f 180/3/4 179/3/4 104/3/4 103/3/4

f 172/2/4 30/2/4 92/2/4 171/2/4

f 43/3/4 53/3/4 181/3/4 173/3/4

f 173/2/4 181/2/4 182/2/4 175/2/4

f 175/2/4 182/2/4 183/2/4 177/2/4

f 177/2/4 183/2/4 184/2/4 179/2/4

f 179/3/4 184/3/4 115/3/4 104/3/4

f 53/3/4 58/3/4 185/3/4 181/3/4

f 181/3/4 185/3/4 186/3/4 182/3/4

f 182/3/4 186/3/4 187/3/4 183/3/4

f 183/3/4 187/3/4 188/3/4 184/3/4

f 184/3/4 188/3/4 120/3/4 115/3/4

f 189/1/5 190/1/5 62/1/5 61/1/5

f 191/1/5 192/1/5 190/1/5 189/1/5

f 1/1/5 4/1/5 193/1/5 194/1/5

f 194/1/5 193/1/5 195/1/5 196/1/5

f 196/1/5 195/1/5 197/1/5 198/1/5

f 198/1/5 197/1/5 199/1/5 200/1/5

f 200/1/5 199/1/5 201/1/5 202/1/5

f 202/1/5 201/1/5 203/1/5 204/1/5

f 204/1/5 203/1/5 205/1/5 206/1/5

f 206/1/5 205/1/5 207/1/5 208/1/5

f 208/1/5 207/1/5 209/1/5 210/1/5

f 210/1/5 209/1/5 66/1/5 65/1/5

f 211/1/5 212/1/5 192/1/5 191/1/5

f 213/1/5 214/1/5 212/1/5 211/1/5

f 215/1/5 216/1/5 214/1/5 213/1/5

f 217/1/5 218/1/5 216/1/5 215/1/5

f 219/1/5 220/1/5 218/1/5 217/1/5

f 221/1/5 222/1/5 220/1/5 219/1/5

f 223/1/5 224/1/5 222/1/5 221/1/5

f 5/1/5 8/1/5 224/1/5 223/1/5

f 225/1/5 189/1/5 61/1/5 69/1/5

f 226/1/5 191/1/5 189/1/5 225/1/5

f 227/1/5 211/1/5 191/1/5 226/1/5

f 228/1/5 213/1/5 211/1/5 227/1/5

f 229/1/5 215/1/5 213/1/5 228/1/5

f 230/1/5 217/1/5 215/1/5 229/1/5

f 231/1/5 219/1/5 217/1/5 230/1/5

f 9/1/5 12/1/5 232/1/5 233/1/5

f 233/1/5 232/1/5 234/1/5 235/1/5

f 235/1/5 234/1/5 236/1/5 237/1/5

f 237/1/5 236/1/5 238/1/5 239/1/5

f 239/1/5 238/1/5 240/1/5 241/1/5

f 241/1/5 240/1/5 242/1/5 243/1/5

f 243/1/5 242/1/5 244/1/5 245/1/5

f 245/1/5 244/1/5 246/1/5 247/1/5

f 247/1/5 246/1/5 248/1/5 249/1/5

f 249/1/5 248/1/5 72/1/5 71/1/5

f 13/1/5 1/1/5 194/1/5 250/1/5

f 250/1/5 194/1/5 196/1/5 251/1/5

f 251/1/5 196/1/5 198/1/5 252/1/5

f 252/1/5 198/1/5 200/1/5 253/1/5

f 253/1/5 200/1/5 202/1/5 254/1/5

f 254/1/5 202/1/5 204/1/5 255/1/5

f 255/1/5 204/1/5 206/1/5 256/1/5

f 256/1/5 206/1/5 208/1/5 257/1/5

f 257/1/5 208/1/5 210/1/5 258/1/5

f 258/1/5 210/1/5 65/1/5 75/1/5

f 259/1/5 221/1/5 219/1/5 231/1/5

f 260/1/5 223/1/5 221/1/5 259/1/5

f 15/1/5 5/1/5 223/1/5 260/1/5

f 209/1/5 225/1/5 69/1/5 66/1/5

f 207/1/5 226/1/5 225/1/5 209/1/5

f 205/1/5 227/1/5 226/1/5 207/1/5

f 203/1/5 228/1/5 227/1/5 205/1/5

f 201/1/5 229/1/5 228/1/5 203/1/5

f 199/1/5 230/1/5 229/1/5 201/1/5

f 197/1/5 231/1/5 230/1/5 199/1/5

f 195/1/5 259/1/5 231/1/5 197/1/5

f 193/1/5 260/1/5 259/1/5 195/1/5

f 4/1/5 15/1/5 260/1/5 193/1/5

f 261/1/5 153/1/5 78/1/5 77/1/5

f 262/1/5 155/1/5 153/1/5 261/1/5

f 263/1/5 157/1/5 155/1/5 262/1/5

f 264/1/5 159/1/5 157/1/5 263/1/5

f 265/1/5 161/1/5 159/1/5 264/1/5

f 266/1/5 163/1/5 161/1/5 265/1/5

f 267/1/5 165/1/5 163/1/5 266/1/5

f 268/1/5 167/1/5 165/1/5 267/1/5

f 269/1/5 169/1/5 167/1/5 268/1/5

f 17/1/5 20/1/5 169/1/5 269/1/5

f 190/1/5 261/1/5 77/1/5 62/1/5

f 192/1/5 262/1/5 261/1/5 190/1/5

f 12/1/5 13/1/5 250/1/5 232/1/5

f 232/1/5 250/1/5 251/1/5 234/1/5

f 234/1/5 251/1/5 252/1/5 236/1/5

f 236/1/5 252/1/5 253/1/5 238/1/5

f 238/1/5 253/1/5 254/1/5 240/1/5

f 240/1/5 254/1/5 255/1/5 242/1/5

f 242/1/5 255/1/5 256/1/5 244/1/5

f 244/1/5 256/1/5 257/1/5 246/1/5

f 246/1/5 257/1/5 258/1/5 248/1/5

f 248/1/5 258/1/5 75/1/5 72/1/5

f 21/1/5 9/1/5 233/1/5 121/1/5

f 121/1/5 233/1/5 235/1/5 123/1/5

f 123/1/5 235/1/5 237/1/5 125/1/5

f 125/1/5 237/1/5 239/1/5 127/1/5

f 127/1/5 239/1/5 241/1/5 129/1/5

f 129/1/5 241/1/5 243/1/5 131/1/5

f 131/1/5 243/1/5 245/1/5 133/1/5

f 133/1/5 245/1/5 247/1/5 135/1/5

f 135/1/5 247/1/5 249/1/5 137/1/5

f 137/1/5 249/1/5 71/1/5 81/1/5

f 212/1/5 263/1/5 262/1/5 192/1/5

f 214/1/5 264/1/5 263/1/5 212/1/5

f 216/1/5 265/1/5 264/1/5 214/1/5

f 218/1/5 266/1/5 265/1/5 216/1/5

f 220/1/5 267/1/5 266/1/5 218/1/5

f 222/1/5 268/1/5 267/1/5 220/1/5

f 224/1/5 269/1/5 268/1/5 222/1/5

f 8/1/5 17/1/5 269/1/5 224/1/5

f 106/3/5 105/3/5 144/3/5 147/3/5

f 147/3/5 144/3/5 145/3/5 149/3/5

f 149/3/5 145/3/5 50/3/5 49/3/5

f 270/1/6 64/1/6 63/1/6 271/1/6

f 272/1/6 270/1/6 271/1/6 273/1/6

f 2/1/6 274/1/6 275/1/6 3/1/6

f 274/1/6 26/1/6 40/1/6 275/1/6

f 96/1/6 276/1/6 277/1/6 99/1/6

f 276/1/6 278/1/6 279/1/6 277/1/6

f 278/1/6 68/1/6 67/1/6 279/1/6

f 103/1/6 272/1/6 273/1/6 280/1/6

f 180/1/6 103/1/6 280/1/6 281/1/6

f 178/1/6 180/1/6 281/1/6 282/1/6

f 176/1/6 178/1/6 282/1/6 283/1/6

f 174/1/6 176/1/6 283/1/6 284/1/6

f 44/1/6 174/1/6 284/1/6 285/1/6

f 286/1/6 44/1/6 285/1/6 287/1/6

f 6/1/6 286/1/6 287/1/6 7/1/6

f 288/1/6 70/1/6 64/1/6 270/1/6

f 289/1/6 288/1/6 270/1/6 272/1/6

f 101/1/6 289/1/6 272/1/6 103/1/6

f 10/1/6 290/1/6 291/1/6 11/1/6

f 290/1/6 292/1/6 293/1/6 291/1/6

f 292/1/6 294/1/6 295/1/6 293/1/6

f 294/1/6 296/1/6 297/1/6 295/1/6

f 296/1/6 298/1/6 299/1/6 297/1/6

f 298/1/6 300/1/6 301/1/6 299/1/6

f 300/1/6 302/1/6 303/1/6 301/1/6

f 302/1/6 304/1/6 305/1/6 303/1/6

f 304/1/6 306/1/6 307/1/6 305/1/6

f 306/1/6 74/1/6 73/1/6 307/1/6

f 14/1/6 308/1/6 274/1/6 2/1/6

f 308/1/6 23/1/6 26/1/6 274/1/6

f 83/1/6 309/1/6 139/1/6 84/1/6

f 309/1/6 310/1/6 141/1/6 139/1/6

f 310/1/6 35/1/6 38/1/6 141/1/6

f 95/1/6 311/1/6 276/1/6 96/1/6

f 311/1/6 312/1/6 278/1/6 276/1/6

f 312/1/6 76/1/6 68/1/6 278/1/6

f 313/1/6 42/1/6 44/1/6 286/1/6

f 16/1/6 313/1/6 286/1/6 6/1/6

f 279/1/6 67/1/6 70/1/6 288/1/6

f 277/1/6 279/1/6 288/1/6 289/1/6

f 99/1/6 277/1/6 289/1/6 101/1/6

f 275/1/6 40/1/6 42/1/6 313/1/6

f 3/1/6 275/1/6 313/1/6 16/1/6

f 314/1/6 80/1/6 79/1/6 154/1/6

f 315/1/6 314/1/6 154/1/6 156/1/6

f 316/1/6 315/1/6 156/1/6 158/1/6

f 317/1/6 316/1/6 158/1/6 160/1/6

f 318/1/6 317/1/6 160/1/6 162/1/6

f 319/1/6 318/1/6 162/1/6 164/1/6

f 320/1/6 319/1/6 164/1/6 166/1/6

f 321/1/6 320/1/6 166/1/6 168/1/6

f 322/1/6 321/1/6 168/1/6 170/1/6

f 18/1/6 322/1/6 170/1/6 19/1/6

f 271/1/6 63/1/6 80/1/6 314/1/6

f 273/1/6 271/1/6 314/1/6 315/1/6

f 11/1/6 291/1/6 308/1/6 14/1/6

f 291/1/6 293/1/6 23/1/6 308/1/6

f 293/1/6 295/1/6 83/1/6 23/1/6

f 295/1/6 297/1/6 309/1/6 83/1/6

f 297/1/6 299/1/6 310/1/6 309/1/6

f 299/1/6 301/1/6 35/1/6 310/1/6

f 301/1/6 303/1/6 95/1/6 35/1/6

f 303/1/6 305/1/6 311/1/6 95/1/6

f 305/1/6 307/1/6 312/1/6 311/1/6

f 307/1/6 73/1/6 76/1/6 312/1/6

f 22/1/6 122/1/6 290/1/6 10/1/6

f 122/1/6 124/1/6 292/1/6 290/1/6

f 124/1/6 126/1/6 294/1/6 292/1/6

f 126/1/6 128/1/6 296/1/6 294/1/6

f 128/1/6 130/1/6 298/1/6 296/1/6

f 130/1/6 132/1/6 300/1/6 298/1/6

f 132/1/6 134/1/6 302/1/6 300/1/6

f 134/1/6 136/1/6 304/1/6 302/1/6

f 136/1/6 138/1/6 306/1/6 304/1/6

f 138/1/6 82/1/6 74/1/6 306/1/6

f 280/1/6 273/1/6 315/1/6 316/1/6

f 281/1/6 280/1/6 316/1/6 317/1/6

f 282/1/6 281/1/6 317/1/6 318/1/6

f 283/1/6 282/1/6 318/1/6 319/1/6

f 284/1/6 283/1/6 319/1/6 320/1/6

f 285/1/6 284/1/6 320/1/6 321/1/6

f 287/1/6 285/1/6 321/1/6 322/1/6

f 7/1/6 287/1/6 322/1/6 18/1/6

f 91/2/6 90/2/6 89/2/6 92/2/6

f 28/2/6 94/2/6 93/2/6 29/2/6

f 32/2/6 27/2/6 30/2/6 33/2/6

f 48/2/6 108/2/6 94/2/6 28/2/6

f 107/2/6 110/2/6 90/2/6 91/2/6

f 54/3/6 146/3/6 59/3/6 55/3/6

f 146/3/6 148/3/6 152/3/6 59/3/6

f 148/3/6 150/3/6 143/3/6 152/3/6

f 150/3/6 151/3/6 109/3/6 143/3/6

f 151/3/6 117/3/6 116/3/6 109/3/6

f 55/3/6 59/3/6 31/3/6 56/3/6

f 109/3/6 116/3/6 118/3/6 87/3/6

f 56/3/6 31/3/6 34/3/6 57/3/6

f 87/3/6 118/3/6 119/3/6 88/3/6

f 57/3/6 34/3/6 185/3/6 58/3/6

f 34/3/6 172/3/6 186/3/6 185/3/6

f 172/3/6 171/3/6 187/3/6 186/3/6

f 171/3/6 88/3/6 188/3/6 187/3/6

f 88/3/6 119/3/6 120/3/6 188/3/6

f 60/2/6 47/2/6 27/2/6 32/2/6

# numNormals 6
# numTexCoords 3
# numVerts 322
# numFaces 320
