# MagicaVoxel @ ephtracy

# material
mtllib FoodVendor.mtl

# normals
vn -1 0 0
vn 1 0 0
vn 0 0 1
vn 0 0 -1
vn 0 -1 0
vn 0 1 0

# texcoords
vt 0.123047 0.5
vt 0.154297 0.5
vt 0.185547 0.5
vt 0.306641 0.5
vt 0.841797 0.5
vt 0.900391 0.5
vt 0.958984 0.5
vt 0.994141 0.5

# verts
v -0.5 3 1.5
v -0.5 4 1.5
v -0.5 4 0.5
v -0.5 3 0.5
v -0.5 3 3.5
v -0.5 4 3.5
v -0.5 4 2.5
v -0.5 3 2.5
v -0.5 5 0.5
v -0.5 6 0.5
v -0.5 6 -0.5
v -0.5 5 -0.5
v -0.5 0 3.5
v -0.5 1 3.5
v -0.5 1 2.5
v -0.5 0 2.5
v -0.5 2 1.5
v -0.5 2 0.5
v -1.5 4 0.5
v -1.5 5 0.5
v -1.5 5 -0.5
v -1.5 4 -0.5
v -0.5 7 2.5
v -0.5 8 2.5
v -0.5 8 1.5
v -0.5 7 1.5
v -0.5 7 0.5
v -0.5 8 0.5
v -0.5 8 -0.5
v -0.5 7 -0.5
v -0.5 2 2.5
v -0.5 1 1.5
v 0.5 3 0.5
v 0.5 4 0.5
v 0.5 4 -0.5
v 0.5 3 -0.5
v -0.5 0 1.5
v -0.5 1 0.5
v -0.5 0 0.5
v 0.5 1 0.5
v 0.5 2 0.5
v 0.5 2 -0.5
v 0.5 1 -0.5
v -0.5 6 2.5
v -0.5 6 1.5
v -1.5 4 2.5
v -1.5 5 2.5
v -1.5 5 1.5
v -1.5 4 1.5
v -1.5 6 1.5
v -1.5 7 1.5
v -1.5 7 0.5
v -1.5 6 0.5
v -1.5 8 1.5
v -1.5 8 0.5
v -0.5 1 -0.5
v -0.5 0 -0.5
v 3.5 4 2.5
v 3.5 5 2.5
v 3.5 5 1.5
v 3.5 4 1.5
v -0.5 9 1.5
v -0.5 9 0.5
v -0.5 2 3.5
v -0.5 5 2.5
v -0.5 5 1.5
v 3.5 1 2.5
v 3.5 1 1.5
v 3.5 2 1.5
v 3.5 2 2.5
v 4.5 4 1.5
v 4.5 4 0.5
v 4.5 5 0.5
v 4.5 5 1.5
v 3.5 8 1.5
v 3.5 8 0.5
v 3.5 9 0.5
v 3.5 9 1.5
v 3.5 7 2.5
v 3.5 7 1.5
v 3.5 8 2.5
v 3.5 3 2.5
v 3.5 3 1.5
v 3.5 1 0.5
v 3.5 2 0.5
v 3.5 0 3.5
v 3.5 0 2.5
v 3.5 1 3.5
v 3.5 3 0.5
v 3.5 6 1.5
v 3.5 6 2.5
v 2.5 1 0.5
v 2.5 1 -0.5
v 2.5 2 -0.5
v 2.5 2 0.5
v 2.5 3 -0.5
v 2.5 3 0.5
v 2.5 4 -0.5
v 2.5 4 0.5
v 3.5 3 3.5
v 3.5 4 3.5
v 3.5 2 3.5
v 3.5 4 0.5
v 3.5 7 0.5
v 3.5 7 -0.5
v 3.5 8 -0.5
v 3.5 0 0.5
v 3.5 0 -0.5
v 3.5 1 -0.5
v 3.5 0 1.5
v 3.5 6 0.5
v 3.5 6 -0.5
v 4.5 7 1.5
v 4.5 7 0.5
v 4.5 8 0.5
v 4.5 8 1.5
v 4.5 6 1.5
v 4.5 6 0.5
v 3.5 5 0.5
v 3.5 5 -0.5
v 4.5 4 2.5
v 4.5 5 2.5
v 4.5 4 -0.5
v 4.5 5 -0.5
v 0.5 3 3.5
v 0.5 4 3.5
v 1.5 8 1.5
v 2.5 8 1.5
v 2.5 9 1.5
v 1.5 9 1.5
v 1.5 3 3.5
v 2.5 3 3.5
v 2.5 4 3.5
v 1.5 4 3.5
v 1.5 7 2.5
v 2.5 7 2.5
v 2.5 8 2.5
v 1.5 8 2.5
v 0.5 0 3.5
v 0.5 1 3.5
v 0.5 8 1.5
v 0.5 9 1.5
v 0.5 7 2.5
v 0.5 8 2.5
v 0.5 4 1.5
v 1.5 4 1.5
v 1.5 5 1.5
v 0.5 5 1.5
v 2.5 0 3.5
v 2.5 1 3.5
v 2.5 4 1.5
v 2.5 5 1.5
v 2.5 5 2.5
v 2.5 6 2.5
v 1.5 6 2.5
v 0.5 2 3.5
v 1.5 2 3.5
v 0.5 6 2.5
v 1.5 5 2.5
v 2.5 2 3.5
v 0.5 5 2.5
v 1.5 1 3.5
v 1.5 0 3.5
v 1.5 6 -0.5
v 1.5 7 -0.5
v 2.5 7 -0.5
v 2.5 6 -0.5
v 1.5 8 0.5
v 1.5 9 0.5
v 2.5 9 0.5
v 2.5 8 0.5
v 0.5 6 -0.5
v 0.5 5 -0.5
v -0.5 4 -0.5
v 0.5 8 0.5
v 0.5 9 0.5
v 0.5 8 -0.5
v 0.5 7 -0.5
v 1.5 5 -0.5
v 2.5 5 -0.5
v 1.5 4 -0.5
v 1.5 8 -0.5
v 1.5 3 -0.5
v 1.5 1 -0.5
v 1.5 2 -0.5
v 0.5 0 -0.5
v 1.5 0 -0.5
v 2.5 8 -0.5
v 2.5 0 -0.5
v 3.5 4 -0.5
v 0.5 0 2.5
v 2.5 0 2.5
v 0.5 0 1.5
v 0.5 0 0.5
v 1.5 0 0.5
v 1.5 0 1.5
v 2.5 0 0.5
v 2.5 0 1.5
v 1.5 0 2.5
v 0.5 4 2.5
v 2.5 4 2.5
v 1.5 4 2.5

# faces

usemtl palette

f 1/7/1 2/7/1 3/7/1 4/7/1

f 5/7/1 6/7/1 7/7/1 8/7/1

f 9/1/1 10/1/1 11/1/1 12/1/1

f 13/4/1 14/4/1 15/4/1 16/4/1

f 17/5/1 1/5/1 4/5/1 18/5/1

f 19/6/1 20/6/1 21/6/1 22/6/1

f 23/1/1 24/1/1 25/1/1 26/1/1

f 27/1/1 28/1/1 29/1/1 30/1/1

f 15/5/1 31/5/1 17/5/1 32/5/1

f 33/6/1 34/6/1 35/6/1 36/6/1

f 16/4/1 15/4/1 32/4/1 37/4/1

f 37/4/1 32/4/1 38/4/1 39/4/1

f 40/6/1 41/6/1 42/6/1 43/6/1

f 41/6/1 33/6/1 36/6/1 42/6/1

f 44/7/1 23/7/1 26/7/1 45/7/1

f 32/5/1 17/5/1 18/5/1 38/5/1

f 46/6/1 47/6/1 48/6/1 49/6/1

f 50/2/1 51/2/1 52/2/1 53/2/1

f 8/7/1 7/7/1 2/7/1 1/7/1

f 48/3/1 50/3/1 53/3/1 20/3/1

f 51/3/1 54/3/1 55/3/1 52/3/1

f 39/4/1 38/4/1 56/4/1 57/4/1

f 58/6/1 59/6/1 60/6/1 61/6/1

f 25/3/1 62/3/1 63/3/1 28/3/1

f 64/5/1 5/5/1 8/5/1 31/5/1

f 65/1/1 44/1/1 45/1/1 66/1/1

f 10/1/1 27/1/1 30/1/1 11/1/1

f 14/5/1 64/5/1 31/5/1 15/5/1

f 49/6/1 48/6/1 20/6/1 19/6/1

f 31/5/1 8/5/1 1/5/1 17/5/1

f 67/5/2 68/5/2 69/5/2 70/5/2

f 71/6/2 72/6/2 73/6/2 74/6/2

f 75/3/2 76/3/2 77/3/2 78/3/2

f 79/1/2 80/1/2 75/1/2 81/1/2

f 82/7/2 83/7/2 61/7/2 58/7/2

f 68/5/2 84/5/2 85/5/2 69/5/2

f 86/4/2 87/4/2 67/4/2 88/4/2

f 69/5/2 85/5/2 89/5/2 83/5/2

f 70/5/2 69/5/2 83/5/2 82/5/2

f 59/1/2 60/1/2 90/1/2 91/1/2

f 92/6/2 93/6/2 94/6/2 95/6/2

f 95/6/2 94/6/2 96/6/2 97/6/2

f 97/6/2 96/6/2 98/6/2 99/6/2

f 100/7/2 82/7/2 58/7/2 101/7/2

f 102/5/2 70/5/2 82/5/2 100/5/2

f 7/6/2 2/6/2 66/6/2 65/6/2

f 83/7/2 89/7/2 103/7/2 61/7/2

f 104/1/2 105/1/2 106/1/2 76/1/2

f 107/4/2 108/4/2 109/4/2 84/4/2

f 110/4/2 107/4/2 84/4/2 68/4/2

f 87/4/2 110/4/2 68/4/2 67/4/2

f 111/1/2 112/1/2 105/1/2 104/1/2

f 113/3/2 114/3/2 115/3/2 116/3/2

f 117/2/2 118/2/2 114/2/2 113/2/2

f 74/3/2 73/3/2 118/3/2 117/3/2

f 119/1/2 120/1/2 112/1/2 111/1/2

f 121/6/2 71/6/2 74/6/2 122/6/2

f 88/5/2 67/5/2 70/5/2 102/5/2

f 72/6/2 123/6/2 124/6/2 73/6/2

f 91/7/2 90/7/2 80/7/2 79/7/2

f 5/7/3 125/7/3 126/7/3 6/7/3

f 127/2/3 128/2/3 129/2/3 130/2/3

f 131/7/3 132/7/3 133/7/3 134/7/3

f 135/1/3 136/1/3 137/1/3 138/1/3

f 13/4/3 139/4/3 140/4/3 14/4/3

f 128/3/3 75/3/3 78/3/3 129/3/3

f 136/1/3 79/1/3 81/1/3 137/1/3

f 141/2/3 127/2/3 130/2/3 142/2/3

f 23/1/3 143/1/3 144/1/3 24/1/3

f 145/2/3 146/2/3 147/2/3 148/2/3

f 149/4/3 86/4/3 88/4/3 150/4/3

f 151/3/3 61/3/3 60/3/3 152/3/3

f 153/1/3 59/1/3 91/1/3 154/1/3

f 155/1/3 154/1/3 136/1/3 135/1/3

f 156/5/3 157/5/3 131/5/3 125/5/3

f 158/1/3 155/1/3 135/1/3 143/1/3

f 159/1/3 153/1/3 154/1/3 155/1/3

f 132/7/3 100/7/3 101/7/3 133/7/3

f 125/7/3 131/7/3 134/7/3 126/7/3

f 44/7/3 158/7/3 143/7/3 23/7/3

f 160/5/3 102/5/3 100/5/3 132/5/3

f 2/3/3 145/3/3 148/3/3 66/3/3

f 161/1/3 159/1/3 155/1/3 158/1/3

f 162/5/3 150/5/3 160/5/3 157/5/3

f 46/6/3 7/6/3 65/6/3 47/6/3

f 50/2/3 45/2/3 26/2/3 51/2/3

f 146/2/3 151/2/3 152/2/3 147/2/3

f 48/3/3 66/3/3 45/3/3 50/3/3

f 140/5/3 162/5/3 157/5/3 156/5/3

f 80/3/3 113/3/3 116/3/3 75/3/3

f 90/2/3 117/2/3 113/2/3 80/2/3

f 60/3/3 74/3/3 117/3/3 90/3/3

f 51/3/3 26/3/3 25/3/3 54/3/3

f 157/5/3 160/5/3 132/5/3 131/5/3

f 58/6/3 121/6/3 122/6/3 59/6/3

f 25/3/3 141/3/3 142/3/3 62/3/3

f 64/5/3 156/5/3 125/5/3 5/5/3

f 65/1/3 161/1/3 158/1/3 44/1/3

f 150/5/3 88/5/3 102/5/3 160/5/3

f 154/7/3 91/7/3 79/7/3 136/7/3

f 14/5/3 140/5/3 156/5/3 64/5/3

f 139/4/3 163/4/3 162/4/3 140/4/3

f 163/4/3 149/4/3 150/4/3 162/4/3

f 143/1/3 135/1/3 138/1/3 144/1/3

f 4/7/4 3/7/4 34/7/4 33/7/4

f 164/1/4 165/1/4 166/1/4 167/1/4

f 168/2/4 169/2/4 170/2/4 171/2/4

f 12/1/4 11/1/4 172/1/4 173/1/4

f 18/5/4 4/5/4 33/5/4 41/5/4

f 171/3/4 170/3/4 77/3/4 76/3/4

f 22/6/4 21/6/4 12/6/4 174/6/4

f 175/2/4 176/2/4 169/2/4 168/2/4

f 30/1/4 29/1/4 177/1/4 178/1/4

f 92/5/4 95/5/4 85/5/4 84/5/4

f 179/8/4 164/8/4 167/8/4 180/8/4

f 173/8/4 172/8/4 164/8/4 179/8/4

f 181/6/4 179/6/4 180/6/4 98/6/4

f 35/6/4 173/6/4 179/6/4 181/6/4

f 95/5/4 97/5/4 89/5/4 85/5/4

f 178/1/4 177/1/4 182/1/4 165/1/4

f 36/6/4 35/6/4 181/6/4 183/6/4

f 184/6/4 185/6/4 94/6/4 93/6/4

f 185/6/4 183/6/4 96/6/4 94/6/4

f 183/6/4 181/6/4 98/6/4 96/6/4

f 43/6/4 42/6/4 185/6/4 184/6/4

f 42/6/4 36/6/4 183/6/4 185/6/4

f 186/4/4 43/4/4 184/4/4 187/4/4

f 38/5/4 18/5/4 41/5/4 40/5/4

f 53/2/4 52/2/4 27/2/4 10/2/4

f 97/7/4 99/7/4 103/7/4 89/7/4

f 166/1/4 188/1/4 106/1/4 105/1/4

f 189/4/4 93/4/4 109/4/4 108/4/4

f 98/6/4 180/6/4 120/6/4 190/6/4

f 20/3/4 53/3/4 10/3/4 9/3/4

f 167/1/4 166/1/4 105/1/4 112/1/4

f 104/3/4 76/3/4 115/3/4 114/3/4

f 111/2/4 104/2/4 114/2/4 118/2/4

f 119/3/4 111/3/4 118/3/4 73/3/4

f 52/3/4 55/3/4 28/3/4 27/3/4

f 174/6/4 12/6/4 173/6/4 35/6/4

f 57/4/4 56/4/4 43/4/4 186/4/4

f 180/1/4 167/1/4 112/1/4 120/1/4

f 165/1/4 182/1/4 188/1/4 166/1/4

f 28/3/4 63/3/4 176/3/4 175/3/4

f 172/1/4 178/1/4 165/1/4 164/1/4

f 190/6/4 120/6/4 124/6/4 123/6/4

f 11/1/4 30/1/4 178/1/4 172/1/4

f 187/4/4 184/4/4 93/4/4 189/4/4

f 13/4/5 16/4/5 191/4/5 139/4/5

f 61/6/5 103/6/5 72/6/5 71/6/5

f 19/6/5 22/6/5 174/6/5 3/6/5

f 149/4/5 192/4/5 87/4/5 86/4/5

f 16/4/5 37/4/5 193/4/5 191/4/5

f 153/1/5 152/1/5 60/1/5 59/1/5

f 159/1/5 147/1/5 152/1/5 153/1/5

f 37/4/5 39/4/5 194/4/5 193/4/5

f 193/4/5 194/4/5 195/4/5 196/4/5

f 194/4/5 186/4/5 187/4/5 195/4/5

f 161/1/5 148/1/5 147/1/5 159/1/5

f 46/6/5 49/6/5 2/6/5 7/6/5

f 197/4/5 189/4/5 108/4/5 107/4/5

f 198/4/5 197/4/5 107/4/5 110/4/5

f 99/6/5 98/6/5 190/6/5 103/6/5

f 191/4/5 193/4/5 196/4/5 199/4/5

f 199/4/5 196/4/5 198/4/5 192/4/5

f 192/4/5 198/4/5 110/4/5 87/4/5

f 196/4/5 195/4/5 197/4/5 198/4/5

f 3/6/5 174/6/5 35/6/5 34/6/5

f 39/4/5 57/4/5 186/4/5 194/4/5

f 58/6/5 61/6/5 71/6/5 121/6/5

f 65/1/5 66/1/5 148/1/5 161/1/5

f 103/6/5 190/6/5 123/6/5 72/6/5

f 139/4/5 191/4/5 199/4/5 163/4/5

f 163/4/5 199/4/5 192/4/5 149/4/5

f 49/6/5 19/6/5 3/6/5 2/6/5

f 195/4/5 187/4/5 189/4/5 197/4/5

f 6/7/6 126/7/6 200/7/6 7/7/6

f 130/2/6 129/2/6 170/2/6 169/2/6

f 134/7/6 133/7/6 201/7/6 202/7/6

f 138/1/6 137/1/6 128/1/6 127/1/6

f 129/3/6 78/3/6 77/3/6 170/3/6

f 137/1/6 81/1/6 75/1/6 128/1/6

f 202/7/6 201/7/6 151/7/6 146/7/6

f 201/7/6 58/7/6 61/7/6 151/7/6

f 20/6/6 9/6/6 12/6/6 21/6/6

f 142/2/6 130/2/6 169/2/6 176/2/6

f 24/1/6 144/1/6 141/1/6 25/1/6

f 28/1/6 175/1/6 177/1/6 29/1/6

f 175/1/6 168/1/6 182/1/6 177/1/6

f 133/7/6 101/7/6 58/7/6 201/7/6

f 126/7/6 134/7/6 202/7/6 200/7/6

f 200/7/6 202/7/6 146/7/6 145/7/6

f 47/6/6 65/6/6 66/6/6 48/6/6

f 171/1/6 76/1/6 106/1/6 188/1/6

f 7/7/6 200/7/6 145/7/6 2/7/6

f 92/4/6 84/4/6 109/4/6 93/4/6

f 75/3/6 116/3/6 115/3/6 76/3/6

f 54/3/6 25/3/6 28/3/6 55/3/6

f 38/4/6 40/4/6 43/4/6 56/4/6

f 168/1/6 171/1/6 188/1/6 182/1/6

f 59/6/6 122/6/6 74/6/6 60/6/6

f 62/3/6 142/3/6 176/3/6 63/3/6

f 119/6/6 73/6/6 124/6/6 120/6/6

f 144/1/6 138/1/6 127/1/6 141/1/6

# numNormals 6
# numTexCoords 8
# numVerts 202
# numFaces 204
