# MagicaVoxel @ ephtracy

# material
mtllib HumanNpc.mtl

# normals
vn -1 0 0
vn 1 0 0
vn 0 0 1
vn 0 0 -1
vn 0 -1 0
vn 0 1 0

# texcoords
vt 0.958984 0.5
vt 0.974609 0.5
vt 0.994141 0.5

# verts
v 0 0 1
v 0 1 1
v 0 1 -0
v 0 0 -0
v 0 2 1
v 0 2 -0
v 0 3 1
v 0 3 -0
v 0 3 -1
v 0 2 -1
v 0 3 -2
v 0 2 -2
v 0 2 2
v 0 3 2
v 0 2 3
v 0 3 3
v -1 3 1
v -1 4 1
v -1 4 -0
v -1 3 -0
v -1 4 -1
v -1 3 -1
v -1 5 1
v -1 5 -0
v -1 3 2
v -1 4 2
v -1 5 2
v -1 5 -1
v -1 6 2
v -1 6 1
v -1 6 -0
v -1 6 -1
v 0 6 2
v 0 7 2
v 0 7 1
v 0 6 1
v 0 6 -0
v 0 7 -0
v 0 7 -1
v 0 6 -1
v 1 0 1
v 1 0 -0
v 1 1 -0
v 1 1 1
v 1 2 -0
v 1 2 1
v 1 3 -0
v 1 3 1
v 1 2 -1
v 1 3 -1
v 1 2 -2
v 1 3 -2
v 1 2 2
v 1 3 2
v 1 2 3
v 1 3 3
v 2 3 -0
v 2 3 -1
v 2 4 -1
v 2 4 -0
v 2 3 1
v 2 4 1
v 2 3 2
v 2 4 2
v 2 5 1
v 2 5 2
v 2 5 -0
v 2 5 -1
v 2 6 1
v 2 6 2
v 2 6 -0
v 2 6 -1
v 1 6 2
v 1 6 1
v 1 7 1
v 1 7 2
v 1 6 -0
v 1 6 -1
v 1 7 -1
v 1 7 -0
v 1 4 2
v 0 4 2
v 0 5 2
v 1 5 2
v 0 4 -1
v 1 4 -1
v 0 5 -1
v 1 5 -1

# faces

usemtl palette

f 1/2/1 2/2/1 3/2/1 4/2/1

f 2/2/1 5/2/1 6/2/1 3/2/1

f 5/2/1 7/2/1 8/2/1 6/2/1

f 6/2/1 8/2/1 9/2/1 10/2/1

f 10/2/1 9/2/1 11/2/1 12/2/1

f 13/2/1 14/2/1 7/2/1 5/2/1

f 15/2/1 16/2/1 14/2/1 13/2/1

f 17/1/1 18/1/1 19/1/1 20/1/1

f 20/1/1 19/1/1 21/1/1 22/1/1

f 18/1/1 23/1/1 24/1/1 19/1/1

f 25/1/1 26/1/1 18/1/1 17/1/1

f 26/1/1 27/1/1 23/1/1 18/1/1

f 19/1/1 24/1/1 28/1/1 21/1/1

f 27/1/1 29/1/1 30/1/1 23/1/1

f 23/1/1 30/1/1 31/1/1 24/1/1

f 24/1/1 31/1/1 32/1/1 28/1/1

f 33/3/1 34/3/1 35/3/1 36/3/1

f 37/3/1 38/3/1 39/3/1 40/3/1

f 41/2/2 42/2/2 43/2/2 44/2/2

f 44/2/2 43/2/2 45/2/2 46/2/2

f 46/2/2 45/2/2 47/2/2 48/2/2

f 45/2/2 49/2/2 50/2/2 47/2/2

f 49/2/2 51/2/2 52/2/2 50/2/2

f 53/2/2 46/2/2 48/2/2 54/2/2

f 55/2/2 53/2/2 54/2/2 56/2/2

f 57/1/2 58/1/2 59/1/2 60/1/2

f 61/1/2 57/1/2 60/1/2 62/1/2

f 63/1/2 61/1/2 62/1/2 64/1/2

f 64/3/2 62/3/2 65/3/2 66/3/2

f 62/1/2 60/1/2 67/1/2 65/1/2

f 60/3/2 59/3/2 68/3/2 67/3/2

f 66/1/2 65/1/2 69/1/2 70/1/2

f 65/1/2 67/1/2 71/1/2 69/1/2

f 67/1/2 68/1/2 72/1/2 71/1/2

f 73/3/2 74/3/2 75/3/2 76/3/2

f 77/3/2 78/3/2 79/3/2 80/3/2

f 1/2/3 41/2/3 44/2/3 2/2/3

f 2/2/3 44/2/3 46/2/3 5/2/3

f 15/2/3 55/2/3 56/2/3 16/2/3

f 14/1/3 54/1/3 81/1/3 82/1/3

f 54/1/3 63/1/3 64/1/3 81/1/3

f 25/1/3 14/1/3 82/1/3 26/1/3

f 26/1/3 82/1/3 83/1/3 27/1/3

f 82/1/3 81/1/3 84/1/3 83/1/3

f 81/3/3 64/3/3 66/3/3 84/3/3

f 27/1/3 83/1/3 33/1/3 29/1/3

f 83/1/3 84/1/3 73/1/3 33/1/3

f 84/1/3 66/1/3 70/1/3 73/1/3

f 33/3/3 73/3/3 76/3/3 34/3/3

f 37/3/3 77/3/3 80/3/3 38/3/3

f 4/2/4 3/2/4 43/2/4 42/2/4

f 3/2/4 6/2/4 45/2/4 43/2/4

f 12/2/4 11/2/4 52/2/4 51/2/4

f 9/1/4 85/1/4 86/1/4 50/1/4

f 50/1/4 86/1/4 59/1/4 58/1/4

f 22/1/4 21/1/4 85/1/4 9/1/4

f 21/1/4 28/1/4 87/1/4 85/1/4

f 85/1/4 87/1/4 88/1/4 86/1/4

f 86/3/4 88/3/4 68/3/4 59/3/4

f 28/1/4 32/1/4 40/1/4 87/1/4

f 87/1/4 40/1/4 78/1/4 88/1/4

f 88/1/4 78/1/4 72/1/4 68/1/4

f 36/3/4 35/3/4 75/3/4 74/3/4

f 40/3/4 39/3/4 79/3/4 78/3/4

f 1/2/5 4/2/5 42/2/5 41/2/5

f 6/2/5 10/2/5 49/2/5 45/2/5

f 10/2/5 12/2/5 51/2/5 49/2/5

f 13/2/5 5/2/5 46/2/5 53/2/5

f 15/2/5 13/2/5 53/2/5 55/2/5

f 47/1/5 50/1/5 58/1/5 57/1/5

f 48/1/5 47/1/5 57/1/5 61/1/5

f 54/1/5 48/1/5 61/1/5 63/1/5

f 17/1/5 20/1/5 8/1/5 7/1/5

f 20/1/5 22/1/5 9/1/5 8/1/5

f 25/1/5 17/1/5 7/1/5 14/1/5

f 9/2/6 50/2/6 52/2/6 11/2/6

f 16/2/6 56/2/6 54/2/6 14/2/6

f 29/1/6 33/1/6 36/1/6 30/1/6

f 73/1/6 70/1/6 69/1/6 74/1/6

f 30/1/6 36/1/6 37/1/6 31/1/6

f 36/1/6 74/1/6 77/1/6 37/1/6

f 74/1/6 69/1/6 71/1/6 77/1/6

f 31/1/6 37/1/6 40/1/6 32/1/6

f 77/1/6 71/1/6 72/1/6 78/1/6

f 34/3/6 76/3/6 75/3/6 35/3/6

f 38/3/6 80/3/6 79/3/6 39/3/6

# numNormals 6
# numTexCoords 3
# numVerts 88
# numFaces 86
