# MagicaVoxel @ ephtracy

# material
mtllib PlayerNpc.mtl

# normals
vn -1 0 0
vn 1 0 0
vn 0 0 1
vn 0 0 -1
vn 0 -1 0
vn 0 1 0

# texcoords
vt 0.0214844 0.5
vt 0.0683594 0.5
vt 0.748047 0.5
vt 0.994141 0.5

# verts
v 0 0 1
v 0 1 1
v 0 1 -0
v 0 0 -0
v 0 2 1
v 0 2 -0
v 0 3 1
v 0 3 -0
v 0 3 -1
v 0 2 -1
v 0 4 3
v 0 5 3
v 0 5 2
v 0 4 2
v 0 2 2
v 0 3 2
v 0 6 3
v 0 6 2
v -1 3 1
v -1 4 1
v -1 4 -0
v -1 3 -0
v -1 4 -1
v -1 3 -1
v -1 5 1
v -1 5 -0
v -1 3 2
v -1 4 2
v -1 5 2
v -1 5 -1
v -1 6 2
v -1 6 1
v -1 6 -0
v -1 6 -1
v 0 7 2
v 0 7 1
v 0 6 1
v 0 6 -0
v 0 7 -0
v 0 7 -1
v 0 6 -1
v 0 4 -1
v 0 4 -2
v 0 3 -2
v 0 5 -1
v 0 5 -2
v 0 6 -2
v 0 3 3
v 1 0 1
v 1 0 -0
v 1 1 -0
v 1 1 1
v 1 2 -0
v 1 2 1
v 1 3 -0
v 1 3 1
v 1 2 -1
v 1 3 -1
v 1 2 2
v 1 3 2
v 1 5 3
v 1 5 2
v 1 6 2
v 1 6 3
v 2 3 -0
v 2 3 -1
v 2 4 -1
v 2 4 -0
v 2 3 1
v 2 4 1
v 2 3 2
v 2 4 2
v 2 5 1
v 2 5 2
v 2 5 -0
v 2 5 -1
v 2 6 1
v 2 6 2
v 2 6 -0
v 2 6 -1
v 1 6 1
v 1 7 1
v 1 7 2
v 1 6 -0
v 1 6 -1
v 1 7 -1
v 1 7 -0
v 1 3 -2
v 1 4 -2
v 1 4 -1
v 1 5 -1
v 1 5 -2
v 1 6 -2
v 1 3 3
v 1 4 2
v 1 4 3
v 3 4 -1
v 3 4 -2
v 3 5 -2
v 3 5 -1
v 3 4 3
v 3 4 2
v 3 5 2
v 3 5 3
v 2 4 3
v 2 5 3
v 2 5 -2
v 2 4 -2

# faces

usemtl palette

f 1/3/1 2/3/1 3/3/1 4/3/1

f 2/3/1 5/3/1 6/3/1 3/3/1

f 5/1/1 7/1/1 8/1/1 6/1/1

f 6/1/1 8/1/1 9/1/1 10/1/1

f 11/1/1 12/1/1 13/1/1 14/1/1

f 15/1/1 16/1/1 7/1/1 5/1/1

f 12/1/1 17/1/1 18/1/1 13/1/1

f 19/2/1 20/2/1 21/2/1 22/2/1

f 22/2/1 21/2/1 23/2/1 24/2/1

f 20/2/1 25/2/1 26/2/1 21/2/1

f 27/2/1 28/2/1 20/2/1 19/2/1

f 28/2/1 29/2/1 25/2/1 20/2/1

f 21/2/1 26/2/1 30/2/1 23/2/1

f 29/2/1 31/2/1 32/2/1 25/2/1

f 25/2/1 32/2/1 33/2/1 26/2/1

f 26/2/1 33/2/1 34/2/1 30/2/1

f 18/1/1 35/1/1 36/1/1 37/1/1

f 38/1/1 39/1/1 40/1/1 41/1/1

f 37/1/1 36/1/1 39/1/1 38/1/1

f 9/1/1 42/1/1 43/1/1 44/1/1

f 42/1/1 45/1/1 46/1/1 43/1/1

f 45/1/1 41/1/1 47/1/1 46/1/1

f 48/1/1 11/1/1 14/1/1 16/1/1

f 49/3/2 50/3/2 51/3/2 52/3/2

f 52/3/2 51/3/2 53/3/2 54/3/2

f 54/1/2 53/1/2 55/1/2 56/1/2

f 53/1/2 57/1/2 58/1/2 55/1/2

f 59/1/2 54/1/2 56/1/2 60/1/2

f 61/1/2 62/1/2 63/1/2 64/1/2

f 65/4/2 66/4/2 67/4/2 68/4/2

f 69/4/2 65/4/2 68/4/2 70/4/2

f 71/4/2 69/4/2 70/4/2 72/4/2

f 72/2/2 70/2/2 73/2/2 74/2/2

f 70/2/2 68/2/2 75/2/2 73/2/2

f 68/2/2 67/2/2 76/2/2 75/2/2

f 74/4/2 73/4/2 77/4/2 78/4/2

f 73/2/2 75/2/2 79/2/2 77/2/2

f 75/4/2 76/4/2 80/4/2 79/4/2

f 63/1/2 81/1/2 82/1/2 83/1/2

f 84/1/2 85/1/2 86/1/2 87/1/2

f 81/1/2 84/1/2 87/1/2 82/1/2

f 58/1/2 88/1/2 89/1/2 90/1/2

f 91/1/2 92/1/2 93/1/2 85/1/2

f 94/1/2 60/1/2 95/1/2 96/1/2

f 97/3/2 98/3/2 99/3/2 100/3/2

f 101/3/2 102/3/2 103/3/2 104/3/2

f 1/3/3 49/3/3 52/3/3 2/3/3

f 2/3/3 52/3/3 54/3/3 5/3/3

f 11/1/3 96/1/3 61/1/3 12/1/3

f 15/1/3 59/1/3 60/1/3 16/1/3

f 12/1/3 61/1/3 64/1/3 17/1/3

f 60/4/3 71/4/3 72/4/3 95/4/3

f 27/2/3 16/2/3 14/2/3 28/2/3

f 28/2/3 14/2/3 13/2/3 29/2/3

f 29/2/3 13/2/3 18/2/3 31/2/3

f 62/4/3 74/4/3 78/4/3 63/4/3

f 18/1/3 63/1/3 83/1/3 35/1/3

f 48/1/3 94/1/3 96/1/3 11/1/3

f 67/3/3 97/3/3 100/3/3 76/3/3

f 96/3/3 105/3/3 106/3/3 61/3/3

f 105/3/3 101/3/3 104/3/3 106/3/3

f 4/3/4 3/3/4 51/3/4 50/3/4

f 3/3/4 6/3/4 53/3/4 51/3/4

f 10/1/4 9/1/4 58/1/4 57/1/4

f 58/4/4 90/4/4 67/4/4 66/4/4

f 24/2/4 23/2/4 42/2/4 9/2/4

f 23/2/4 30/2/4 45/2/4 42/2/4

f 30/2/4 34/2/4 41/2/4 45/2/4

f 91/4/4 85/4/4 80/4/4 76/4/4

f 41/1/4 40/1/4 86/1/4 85/1/4

f 44/1/4 43/1/4 89/1/4 88/1/4

f 43/1/4 46/1/4 92/1/4 89/1/4

f 46/1/4 47/1/4 93/1/4 92/1/4

f 89/3/4 92/3/4 107/3/4 108/3/4

f 108/3/4 107/3/4 99/3/4 98/3/4

f 72/3/4 74/3/4 103/3/4 102/3/4

f 1/3/5 4/3/5 50/3/5 49/3/5

f 6/1/5 10/1/5 57/1/5 53/1/5

f 15/1/5 5/1/5 54/1/5 59/1/5

f 55/4/5 58/4/5 66/4/5 65/4/5

f 56/4/5 55/4/5 65/4/5 69/4/5

f 60/4/5 56/4/5 69/4/5 71/4/5

f 19/2/5 22/2/5 8/2/5 7/2/5

f 22/2/5 24/2/5 9/2/5 8/2/5

f 27/2/5 19/2/5 7/2/5 16/2/5

f 9/1/5 44/1/5 88/1/5 58/1/5

f 48/1/5 16/1/5 60/1/5 94/1/5

f 90/3/5 89/3/5 108/3/5 67/3/5

f 67/3/5 108/3/5 98/3/5 97/3/5

f 96/3/5 95/3/5 72/3/5 105/3/5

f 105/3/5 72/3/5 102/3/5 101/3/5

f 17/1/6 64/1/6 63/1/6 18/1/6

f 31/2/6 18/2/6 37/2/6 32/2/6

f 63/4/6 78/4/6 77/4/6 81/4/6

f 32/2/6 37/2/6 38/2/6 33/2/6

f 81/2/6 77/2/6 79/2/6 84/2/6

f 33/2/6 38/2/6 41/2/6 34/2/6

f 84/4/6 79/4/6 80/4/6 85/4/6

f 35/1/6 83/1/6 82/1/6 36/1/6

f 39/1/6 87/1/6 86/1/6 40/1/6

f 36/1/6 82/1/6 87/1/6 39/1/6

f 41/1/6 85/1/6 93/1/6 47/1/6

f 91/3/6 76/3/6 107/3/6 92/3/6

f 76/3/6 100/3/6 99/3/6 107/3/6

f 61/3/6 106/3/6 74/3/6 62/3/6

f 106/3/6 104/3/6 103/3/6 74/3/6

# numNormals 6
# numTexCoords 4
# numVerts 108
# numFaces 106
