# MagicaVoxel @ ephtracy

# material
mtllib BuildingTop.mtl
usemtl palette

# normals
vn -1 0 0
vn 1 0 0
vn 0 0 1
vn 0 0 -1
vn 0 -1 0
vn 0 1 0

# texcoords
vt 0.970703 0.5

# verts and faces
v -4.5 0 4.5
v -4.5 0 -4.5
v -4.5 2 4.5
v -4.5 2 -4.5
f -2/1/1 -3/1/1 -4/1/1
f -1/1/1 -3/1/1 -2/1/1
v -3.5 2 3.5
v -3.5 2 -3.5
v -3.5 3 3.5
v -3.5 3 -3.5
f -2/1/1 -3/1/1 -4/1/1
f -1/1/1 -3/1/1 -2/1/1
v -2.5 3 2.5
v -2.5 3 -2.5
v -2.5 4 2.5
v -2.5 4 -2.5
f -2/1/1 -3/1/1 -4/1/1
f -1/1/1 -3/1/1 -2/1/1
v -1.5 4 1.5
v -1.5 4 -1.5
v -1.5 5 1.5
v -1.5 5 -1.5
f -2/1/1 -3/1/1 -4/1/1
f -1/1/1 -3/1/1 -2/1/1
v -0.5 5 0.5
v -0.5 5 -0.5
v -0.5 6 0.5
v -0.5 6 -0.5
f -2/1/1 -3/1/1 -4/1/1
f -1/1/1 -3/1/1 -2/1/1
v 0.5 4 0.5
v 0.5 4 -0.5
v 0.5 5 0.5
v 0.5 5 -0.5
f -2/1/1 -3/1/1 -4/1/1
f -1/1/1 -3/1/1 -2/1/1
v 1.5 3 1.5
v 1.5 3 -1.5
v 1.5 4 1.5
v 1.5 4 -1.5
f -2/1/1 -3/1/1 -4/1/1
f -1/1/1 -3/1/1 -2/1/1
v 2.5 2 2.5
v 2.5 2 -2.5
v 2.5 3 2.5
v 2.5 3 -2.5
f -2/1/1 -3/1/1 -4/1/1
f -1/1/1 -3/1/1 -2/1/1
v 3.5 0 3.5
v 3.5 0 -3.5
v 3.5 2 3.5
v 3.5 2 -3.5
f -2/1/1 -3/1/1 -4/1/1
f -1/1/1 -3/1/1 -2/1/1
v -3.5 0 3.5
v -3.5 0 -3.5
v -3.5 2 3.5
v -3.5 2 -3.5
f -4/1/2 -3/1/2 -2/1/2
f -2/1/2 -3/1/2 -1/1/2
v -2.5 2 2.5
v -2.5 2 -2.5
v -2.5 3 2.5
v -2.5 3 -2.5
f -4/1/2 -3/1/2 -2/1/2
f -2/1/2 -3/1/2 -1/1/2
v -1.5 3 1.5
v -1.5 3 -1.5
v -1.5 4 1.5
v -1.5 4 -1.5
f -4/1/2 -3/1/2 -2/1/2
f -2/1/2 -3/1/2 -1/1/2
v -0.5 4 0.5
v -0.5 4 -0.5
v -0.5 5 0.5
v -0.5 5 -0.5
f -4/1/2 -3/1/2 -2/1/2
f -2/1/2 -3/1/2 -1/1/2
v 0.5 5 0.5
v 0.5 5 -0.5
v 0.5 6 0.5
v 0.5 6 -0.5
f -4/1/2 -3/1/2 -2/1/2
f -2/1/2 -3/1/2 -1/1/2
v 1.5 4 1.5
v 1.5 4 -1.5
v 1.5 5 1.5
v 1.5 5 -1.5
f -4/1/2 -3/1/2 -2/1/2
f -2/1/2 -3/1/2 -1/1/2
v 2.5 3 2.5
v 2.5 3 -2.5
v 2.5 4 2.5
v 2.5 4 -2.5
f -4/1/2 -3/1/2 -2/1/2
f -2/1/2 -3/1/2 -1/1/2
v 3.5 2 3.5
v 3.5 2 -3.5
v 3.5 3 3.5
v 3.5 3 -3.5
f -4/1/2 -3/1/2 -2/1/2
f -2/1/2 -3/1/2 -1/1/2
v 4.5 0 4.5
v 4.5 0 -4.5
v 4.5 2 4.5
v 4.5 2 -4.5
f -4/1/2 -3/1/2 -2/1/2
f -2/1/2 -3/1/2 -1/1/2
v -4.5 0 4.5
v -4.5 2 4.5
v 4.5 0 4.5
v 4.5 2 4.5
f -2/1/3 -3/1/3 -4/1/3
f -1/1/3 -3/1/3 -2/1/3
v -3.5 2 3.5
v -3.5 3 3.5
v 3.5 2 3.5
v 3.5 3 3.5
f -2/1/3 -3/1/3 -4/1/3
f -1/1/3 -3/1/3 -2/1/3
v -2.5 3 2.5
v -2.5 4 2.5
v 2.5 3 2.5
v 2.5 4 2.5
f -2/1/3 -3/1/3 -4/1/3
f -1/1/3 -3/1/3 -2/1/3
v -1.5 4 1.5
v -1.5 5 1.5
v 1.5 4 1.5
v 1.5 5 1.5
f -2/1/3 -3/1/3 -4/1/3
f -1/1/3 -3/1/3 -2/1/3
v -0.5 5 0.5
v -0.5 6 0.5
v 0.5 5 0.5
v 0.5 6 0.5
f -2/1/3 -3/1/3 -4/1/3
f -1/1/3 -3/1/3 -2/1/3
v -0.5 4 -0.5
v -0.5 5 -0.5
v 0.5 4 -0.5
v 0.5 5 -0.5
f -2/1/3 -3/1/3 -4/1/3
f -1/1/3 -3/1/3 -2/1/3
v -1.5 3 -1.5
v -1.5 4 -1.5
v 1.5 3 -1.5
v 1.5 4 -1.5
f -2/1/3 -3/1/3 -4/1/3
f -1/1/3 -3/1/3 -2/1/3
v -2.5 2 -2.5
v -2.5 3 -2.5
v 2.5 2 -2.5
v 2.5 3 -2.5
f -2/1/3 -3/1/3 -4/1/3
f -1/1/3 -3/1/3 -2/1/3
v -3.5 0 -3.5
v -3.5 2 -3.5
v 3.5 0 -3.5
v 3.5 2 -3.5
f -2/1/3 -3/1/3 -4/1/3
f -1/1/3 -3/1/3 -2/1/3
v -3.5 0 3.5
v -3.5 2 3.5
v 3.5 0 3.5
v 3.5 2 3.5
f -4/1/4 -3/1/4 -2/1/4
f -2/1/4 -3/1/4 -1/1/4
v -2.5 2 2.5
v -2.5 3 2.5
v 2.5 2 2.5
v 2.5 3 2.5
f -4/1/4 -3/1/4 -2/1/4
f -2/1/4 -3/1/4 -1/1/4
v -1.5 3 1.5
v -1.5 4 1.5
v 1.5 3 1.5
v 1.5 4 1.5
f -4/1/4 -3/1/4 -2/1/4
f -2/1/4 -3/1/4 -1/1/4
v -0.5 4 0.5
v -0.5 5 0.5
v 0.5 4 0.5
v 0.5 5 0.5
f -4/1/4 -3/1/4 -2/1/4
f -2/1/4 -3/1/4 -1/1/4
v -0.5 5 -0.5
v -0.5 6 -0.5
v 0.5 5 -0.5
v 0.5 6 -0.5
f -4/1/4 -3/1/4 -2/1/4
f -2/1/4 -3/1/4 -1/1/4
v -1.5 4 -1.5
v -1.5 5 -1.5
v 1.5 4 -1.5
v 1.5 5 -1.5
f -4/1/4 -3/1/4 -2/1/4
f -2/1/4 -3/1/4 -1/1/4
v -2.5 3 -2.5
v -2.5 4 -2.5
v 2.5 3 -2.5
v 2.5 4 -2.5
f -4/1/4 -3/1/4 -2/1/4
f -2/1/4 -3/1/4 -1/1/4
v -3.5 2 -3.5
v -3.5 3 -3.5
v 3.5 2 -3.5
v 3.5 3 -3.5
f -4/1/4 -3/1/4 -2/1/4
f -2/1/4 -3/1/4 -1/1/4
v -4.5 0 -4.5
v -4.5 2 -4.5
v 4.5 0 -4.5
v 4.5 2 -4.5
f -4/1/4 -3/1/4 -2/1/4
f -2/1/4 -3/1/4 -1/1/4
v -4.5 0 4.5
v 4.5 0 4.5
v -3.5 0 3.5
v 3.5 0 3.5
v -3.5 0 -3.5
v 3.5 0 -3.5
v -4.5 0 -4.5
v 4.5 0 -4.5
f -6/1/5 -7/1/5 -8/1/5
f -5/1/5 -7/1/5 -6/1/5
f -4/1/5 -6/1/5 -8/1/5
f -3/1/5 -7/1/5 -5/1/5
f -2/1/5 -4/1/5 -8/1/5
f -2/1/5 -3/1/5 -4/1/5
f -1/1/5 -7/1/5 -3/1/5
f -1/1/5 -3/1/5 -2/1/5
v -3.5 2 3.5
v 3.5 2 3.5
v -2.5 2 2.5
v 2.5 2 2.5
v -2.5 2 -2.5
v 2.5 2 -2.5
v -3.5 2 -3.5
v 3.5 2 -3.5
f -6/1/5 -7/1/5 -8/1/5
f -5/1/5 -7/1/5 -6/1/5
f -4/1/5 -6/1/5 -8/1/5
f -3/1/5 -7/1/5 -5/1/5
f -2/1/5 -4/1/5 -8/1/5
f -2/1/5 -3/1/5 -4/1/5
f -1/1/5 -7/1/5 -3/1/5
f -1/1/5 -3/1/5 -2/1/5
v -2.5 3 2.5
v 2.5 3 2.5
v -1.5 3 1.5
v 1.5 3 1.5
v -1.5 3 -1.5
v 1.5 3 -1.5
v -2.5 3 -2.5
v 2.5 3 -2.5
f -6/1/5 -7/1/5 -8/1/5
f -5/1/5 -7/1/5 -6/1/5
f -4/1/5 -6/1/5 -8/1/5
f -3/1/5 -7/1/5 -5/1/5
f -2/1/5 -4/1/5 -8/1/5
f -2/1/5 -3/1/5 -4/1/5
f -1/1/5 -7/1/5 -3/1/5
f -1/1/5 -3/1/5 -2/1/5
v -1.5 4 1.5
v 1.5 4 1.5
v -0.5 4 0.5
v 0.5 4 0.5
v -0.5 4 -0.5
v 0.5 4 -0.5
v -1.5 4 -1.5
v 1.5 4 -1.5
f -6/1/5 -7/1/5 -8/1/5
f -5/1/5 -7/1/5 -6/1/5
f -4/1/5 -6/1/5 -8/1/5
f -3/1/5 -7/1/5 -5/1/5
f -2/1/5 -4/1/5 -8/1/5
f -2/1/5 -3/1/5 -4/1/5
f -1/1/5 -7/1/5 -3/1/5
f -1/1/5 -3/1/5 -2/1/5
v -0.5 5 0.5
v 0.5 5 0.5
v -0.5 5 -0.5
v 0.5 5 -0.5
f -2/1/5 -3/1/5 -4/1/5
f -1/1/5 -3/1/5 -2/1/5
v -4.5 2 4.5
v 4.5 2 4.5
v -3.5 2 3.5
v 3.5 2 3.5
v -3.5 2 -3.5
v 3.5 2 -3.5
v -4.5 2 -4.5
v 4.5 2 -4.5
f -8/1/6 -7/1/6 -6/1/6
f -6/1/6 -7/1/6 -5/1/6
f -8/1/6 -6/1/6 -4/1/6
f -5/1/6 -7/1/6 -3/1/6
f -8/1/6 -4/1/6 -2/1/6
f -4/1/6 -3/1/6 -2/1/6
f -3/1/6 -7/1/6 -1/1/6
f -2/1/6 -3/1/6 -1/1/6
v -3.5 3 3.5
v 3.5 3 3.5
v -2.5 3 2.5
v 2.5 3 2.5
v -2.5 3 -2.5
v 2.5 3 -2.5
v -3.5 3 -3.5
v 3.5 3 -3.5
f -8/1/6 -7/1/6 -6/1/6
f -6/1/6 -7/1/6 -5/1/6
f -8/1/6 -6/1/6 -4/1/6
f -5/1/6 -7/1/6 -3/1/6
f -8/1/6 -4/1/6 -2/1/6
f -4/1/6 -3/1/6 -2/1/6
f -3/1/6 -7/1/6 -1/1/6
f -2/1/6 -3/1/6 -1/1/6
v -2.5 4 2.5
v 2.5 4 2.5
v -1.5 4 1.5
v 1.5 4 1.5
v -1.5 4 -1.5
v 1.5 4 -1.5
v -2.5 4 -2.5
v 2.5 4 -2.5
f -8/1/6 -7/1/6 -6/1/6
f -6/1/6 -7/1/6 -5/1/6
f -8/1/6 -6/1/6 -4/1/6
f -5/1/6 -7/1/6 -3/1/6
f -8/1/6 -4/1/6 -2/1/6
f -4/1/6 -3/1/6 -2/1/6
f -3/1/6 -7/1/6 -1/1/6
f -2/1/6 -3/1/6 -1/1/6
v -1.5 5 1.5
v 1.5 5 1.5
v -0.5 5 0.5
v 0.5 5 0.5
v -0.5 5 -0.5
v 0.5 5 -0.5
v -1.5 5 -1.5
v 1.5 5 -1.5
f -8/1/6 -7/1/6 -6/1/6
f -6/1/6 -7/1/6 -5/1/6
f -8/1/6 -6/1/6 -4/1/6
f -5/1/6 -7/1/6 -3/1/6
f -8/1/6 -4/1/6 -2/1/6
f -4/1/6 -3/1/6 -2/1/6
f -3/1/6 -7/1/6 -1/1/6
f -2/1/6 -3/1/6 -1/1/6
v -0.5 6 0.5
v 0.5 6 0.5
v -0.5 6 -0.5
v 0.5 6 -0.5
f -4/1/6 -3/1/6 -2/1/6
f -2/1/6 -3/1/6 -1/1/6
