# MagicaVoxel @ ephtracy

# material
mtllib BuildingBottom.mtl
usemtl palette

# normals
vn -1 0 0
vn 1 0 0
vn 0 0 1
vn 0 0 -1
vn 0 -1 0
vn 0 1 0

# texcoords
vt 0.958984 0.5
vt 0.962891 0.5
vt 0.970703 0.5
vt 0.974609 0.5

# verts and faces
v -4.5 0 4.5
v -4.5 0 -4.5
v -4.5 4 3.5
v -4.5 4 1.5
v -4.5 4 -1.5
v -4.5 4 -3.5
v -4.5 5 3.5
v -4.5 5 1.5
v -4.5 5 -1.5
v -4.5 5 -3.5
v -4.5 8 4.5
v -4.5 8 3.5
v -4.5 8 1.5
v -4.5 8 -1.5
v -4.5 8 -3.5
v -4.5 8 -4.5
f -14/3/1 -15/3/1 -16/3/1
f -13/3/1 -15/3/1 -14/3/1
f -12/3/1 -15/3/1 -13/3/1
f -11/3/1 -15/3/1 -12/3/1
f -10/3/1 -14/3/1 -16/3/1
f -10/4/1 -13/4/1 -14/4/1
f -9/3/1 -12/3/1 -13/3/1
f -9/4/1 -13/4/1 -10/4/1
f -8/4/1 -11/4/1 -12/4/1
f -8/3/1 -12/3/1 -9/3/1
f -7/3/1 -15/3/1 -11/3/1
f -7/4/1 -11/4/1 -8/4/1
f -6/3/1 -10/3/1 -16/3/1
f -5/3/1 -10/3/1 -6/3/1
f -4/3/1 -8/3/1 -9/3/1
f -3/3/1 -8/3/1 -4/3/1
f -2/3/1 -15/3/1 -7/3/1
f -1/3/1 -15/3/1 -2/3/1
v -3.5 5 3.5
v -3.5 5 2.5
v -3.5 5 1.5
v -3.5 5 -1.5
v -3.5 5 -3.5
v -3.5 6 3.5
v -3.5 6 2.5
v -3.5 8 3.5
v -3.5 8 1.5
v -3.5 8 -1.5
v -3.5 8 -3.5
f -6/2/1 -10/2/1 -11/2/1
f -5/1/1 -9/1/1 -10/1/1
f -5/2/1 -10/2/1 -6/2/1
f -4/1/1 -5/1/1 -6/1/1
f -3/1/1 -9/1/1 -5/1/1
f -3/1/1 -5/1/1 -4/1/1
f -2/1/1 -7/1/1 -8/1/1
f -1/1/1 -7/1/1 -2/1/1
v -1.5 5 4.5
v -1.5 5 3.5
v -1.5 5 -3.5
v -1.5 5 -4.5
v -1.5 6 3.5
v -1.5 8 4.5
v -1.5 8 3.5
v -1.5 8 -3.5
v -1.5 8 -4.5
f -5/3/1 -8/3/1 -9/3/1
f -4/3/1 -5/3/1 -9/3/1
f -3/3/1 -5/3/1 -4/3/1
f -2/3/1 -6/3/1 -7/3/1
f -1/3/1 -6/3/1 -2/3/1
v 1.5 5 3.5
v 1.5 5 2.5
v 1.5 5 -2.5
v 1.5 5 -3.5
v 1.5 6 3.5
v 1.5 6 2.5
v 1.5 8 3.5
v 1.5 8 2.5
v 1.5 8 -2.5
v 1.5 8 -3.5
f -6/2/1 -9/2/1 -10/2/1
f -5/2/1 -9/2/1 -6/2/1
f -4/1/1 -5/1/1 -6/1/1
f -3/1/1 -5/1/1 -4/1/1
f -2/1/1 -7/1/1 -8/1/1
f -1/1/1 -7/1/1 -2/1/1
v 2.5 5 2.5
v 2.5 5 1.5
v 2.5 5 -1.5
v 2.5 5 -2.5
v 2.5 6 2.5
v 2.5 6 1.5
v 2.5 6 -1.5
v 2.5 6 -2.5
v 2.5 8 2.5
v 2.5 8 1.5
v 2.5 8 -1.5
v 2.5 8 -2.5
f -8/2/1 -11/2/1 -12/2/1
f -7/2/1 -11/2/1 -8/2/1
f -6/2/1 -9/2/1 -10/2/1
f -5/2/1 -9/2/1 -6/2/1
f -4/1/1 -7/1/1 -8/1/1
f -3/1/1 -7/1/1 -4/1/1
f -2/1/1 -5/1/1 -6/1/1
f -1/1/1 -5/1/1 -2/1/1
v 3.5 1 3.5
v 3.5 1 2.5
v 3.5 1 1.5
v 3.5 1 -1.5
v 3.5 1 -2.5
v 3.5 1 -3.5
v 3.5 3 2.5
v 3.5 3 1.5
v 3.5 3 -1.5
v 3.5 3 -2.5
v 3.5 4 3.5
v 3.5 4 1.5
v 3.5 4 -1.5
v 3.5 4 -3.5
v 3.5 5 4.5
v 3.5 5 3.5
v 3.5 5 1.5
v 3.5 5 -1.5
v 3.5 5 -3.5
v 3.5 5 -4.5
v 3.5 6 3.5
v 3.5 6 1.5
v 3.5 6 -1.5
v 3.5 6 -3.5
v 3.5 8 4.5
v 3.5 8 3.5
v 3.5 8 1.5
v 3.5 8 -1.5
v 3.5 8 -3.5
v 3.5 8 -4.5
f -24/3/1 -29/3/1 -30/3/1
f -24/4/1 -28/4/1 -29/4/1
f -23/4/1 -28/4/1 -24/4/1
f -22/4/1 -26/4/1 -27/4/1
f -21/3/1 -25/3/1 -26/3/1
f -21/4/1 -26/4/1 -22/4/1
f -20/3/1 -22/3/1 -23/3/1
f -20/3/1 -23/3/1 -24/3/1
f -20/3/1 -21/3/1 -22/3/1
f -20/3/1 -24/3/1 -30/3/1
f -19/3/1 -21/3/1 -20/3/1
f -18/3/1 -21/3/1 -19/3/1
f -17/3/1 -25/3/1 -21/3/1
f -17/3/1 -21/3/1 -18/3/1
f -15/4/1 -19/4/1 -20/4/1
f -14/3/1 -18/3/1 -19/3/1
f -14/4/1 -19/4/1 -15/4/1
f -13/4/1 -17/4/1 -18/4/1
f -13/3/1 -18/3/1 -14/3/1
f -12/4/1 -17/4/1 -13/4/1
f -10/3/1 -15/3/1 -16/3/1
f -9/3/1 -13/3/1 -14/3/1
f -8/3/1 -13/3/1 -9/3/1
f -7/3/1 -11/3/1 -12/3/1
f -6/3/1 -10/3/1 -16/3/1
f -5/3/1 -10/3/1 -6/3/1
f -4/3/1 -8/3/1 -9/3/1
f -3/3/1 -8/3/1 -4/3/1
f -2/3/1 -11/3/1 -7/3/1
f -1/3/1 -11/3/1 -2/3/1
v -3.5 1 3.5
v -3.5 1 -3.5
v -3.5 4 3.5
v -3.5 4 1.5
v -3.5 4 -1.5
v -3.5 4 -3.5
v -3.5 5 4.5
v -3.5 5 3.5
v -3.5 5 2.5
v -3.5 5 1.5
v -3.5 5 -1.5
v -3.5 5 -3.5
v -3.5 5 -4.5
v -3.5 6 3.5
v -3.5 8 4.5
v -3.5 8 3.5
v -3.5 8 1.5
v -3.5 8 -1.5
v -3.5 8 -3.5
v -3.5 8 -4.5
f -20/3/2 -19/3/2 -18/3/2
f -18/3/2 -19/3/2 -17/3/2
f -17/3/2 -19/3/2 -16/3/2
f -16/3/2 -19/3/2 -15/3/2
f -18/4/2 -17/4/2 -13/4/2
f -13/4/2 -17/4/2 -12/4/2
f -17/3/2 -16/3/2 -11/3/2
f -12/4/2 -17/4/2 -11/4/2
f -16/4/2 -15/4/2 -10/4/2
f -11/3/2 -16/3/2 -10/3/2
f -10/4/2 -15/4/2 -9/4/2
f -14/3/2 -13/3/2 -7/3/2
f -14/3/2 -7/3/2 -6/3/2
f -6/3/2 -7/3/2 -5/3/2
f -11/3/2 -10/3/2 -4/3/2
f -4/3/2 -10/3/2 -3/3/2
f -9/3/2 -8/3/2 -2/3/2
f -2/3/2 -8/3/2 -1/3/2
v -2.5 5 2.5
v -2.5 5 1.5
v -2.5 5 -1.5
v -2.5 5 -2.5
v -2.5 6 2.5
v -2.5 8 2.5
v -2.5 8 1.5
v -2.5 8 -1.5
v -2.5 8 -2.5
f -9/1/2 -8/1/2 -5/1/2
f -5/1/2 -8/1/2 -4/1/2
f -4/1/2 -8/1/2 -3/1/2
f -7/1/2 -6/1/2 -2/1/2
f -2/1/2 -6/1/2 -1/1/2
v -1.5 5 3.5
v -1.5 5 2.5
v -1.5 5 -2.5
v -1.5 5 -3.5
v -1.5 6 3.5
v -1.5 6 2.5
v -1.5 8 3.5
v -1.5 8 2.5
v -1.5 8 -2.5
v -1.5 8 -3.5
f -10/2/2 -9/2/2 -6/2/2
f -6/2/2 -9/2/2 -5/2/2
f -6/1/2 -5/1/2 -4/1/2
f -4/1/2 -5/1/2 -3/1/2
f -8/1/2 -7/1/2 -2/1/2
f -2/1/2 -7/1/2 -1/1/2
v 1.5 5 4.5
v 1.5 5 3.5
v 1.5 5 -3.5
v 1.5 5 -4.5
v 1.5 6 3.5
v 1.5 8 4.5
v 1.5 8 3.5
v 1.5 8 -3.5
v 1.5 8 -4.5
f -9/3/2 -8/3/2 -5/3/2
f -9/3/2 -5/3/2 -4/3/2
f -4/3/2 -5/3/2 -3/3/2
f -7/3/2 -6/3/2 -2/3/2
f -2/3/2 -6/3/2 -1/3/2
v 3.5 0 1.5
v 3.5 0 -1.5
v 3.5 1 1.5
v 3.5 1 -1.5
v 3.5 5 3.5
v 3.5 5 1.5
v 3.5 5 -1.5
v 3.5 5 -3.5
v 3.5 6 3.5
v 3.5 6 1.5
v 3.5 6 -1.5
v 3.5 6 -3.5
v 3.5 8 3.5
v 3.5 8 1.5
v 3.5 8 -1.5
v 3.5 8 -3.5
f -16/4/2 -15/4/2 -14/4/2
f -14/4/2 -15/4/2 -13/4/2
f -12/2/2 -11/2/2 -8/2/2
f -8/2/2 -11/2/2 -7/2/2
f -10/2/2 -9/2/2 -6/2/2
f -6/2/2 -9/2/2 -5/2/2
f -8/1/2 -7/1/2 -4/1/2
f -4/1/2 -7/1/2 -3/1/2
f -6/1/2 -5/1/2 -2/1/2
f -2/1/2 -5/1/2 -1/1/2
v 4.5 0 4.5
v 4.5 0 2.5
v 4.5 0 1.5
v 4.5 0 -1.5
v 4.5 0 -2.5
v 4.5 0 -4.5
v 4.5 3 2.5
v 4.5 3 1.5
v 4.5 3 -1.5
v 4.5 3 -2.5
v 4.5 4 3.5
v 4.5 4 1.5
v 4.5 4 -1.5
v 4.5 4 -3.5
v 4.5 5 3.5
v 4.5 5 1.5
v 4.5 5 -1.5
v 4.5 5 -3.5
v 4.5 8 4.5
v 4.5 8 3.5
v 4.5 8 1.5
v 4.5 8 -1.5
v 4.5 8 -3.5
v 4.5 8 -4.5
f -24/3/2 -23/3/2 -18/3/2
f -23/4/2 -22/4/2 -18/4/2
f -18/4/2 -22/4/2 -17/4/2
f -21/4/2 -20/4/2 -16/4/2
f -20/3/2 -19/3/2 -15/3/2
f -16/4/2 -20/4/2 -15/4/2
f -17/3/2 -16/3/2 -14/3/2
f -18/3/2 -17/3/2 -14/3/2
f -16/3/2 -15/3/2 -14/3/2
f -24/3/2 -18/3/2 -14/3/2
f -14/3/2 -15/3/2 -13/3/2
f -13/3/2 -15/3/2 -12/3/2
f -15/3/2 -19/3/2 -11/3/2
f -12/3/2 -15/3/2 -11/3/2
f -24/3/2 -14/3/2 -10/3/2
f -14/4/2 -13/4/2 -10/4/2
f -13/3/2 -12/3/2 -9/3/2
f -10/4/2 -13/4/2 -9/4/2
f -12/4/2 -11/4/2 -8/4/2
f -9/3/2 -12/3/2 -8/3/2
f -11/3/2 -19/3/2 -7/3/2
f -8/4/2 -11/4/2 -7/4/2
f -24/3/2 -10/3/2 -6/3/2
f -6/3/2 -10/3/2 -5/3/2
f -9/3/2 -8/3/2 -4/3/2
f -4/3/2 -8/3/2 -3/3/2
f -7/3/2 -19/3/2 -2/3/2
f -2/3/2 -19/3/2 -1/3/2
v -4.5 0 4.5
v -4.5 8 4.5
v -3.5 4 4.5
v -3.5 5 4.5
v -3.5 8 4.5
v -1.5 4 4.5
v -1.5 5 4.5
v -1.5 8 4.5
v 1.5 4 4.5
v 1.5 5 4.5
v 1.5 8 4.5
v 3.5 4 4.5
v 3.5 5 4.5
v 3.5 8 4.5
v 4.5 0 4.5
v 4.5 8 4.5
f -14/3/3 -15/3/3 -16/3/3
f -13/3/3 -15/3/3 -14/3/3
f -12/3/3 -15/3/3 -13/3/3
f -11/3/3 -14/3/3 -16/3/3
f -11/4/3 -13/4/3 -14/4/3
f -10/4/3 -13/4/3 -11/4/3
f -8/3/3 -11/3/3 -16/3/3
f -8/3/3 -9/3/3 -10/3/3
f -8/3/3 -10/3/3 -11/3/3
f -7/3/3 -9/3/3 -8/3/3
f -6/3/3 -9/3/3 -7/3/3
f -5/3/3 -8/3/3 -16/3/3
f -5/4/3 -7/4/3 -8/4/3
f -4/4/3 -7/4/3 -5/4/3
f -2/3/3 -5/3/3 -16/3/3
f -2/3/3 -3/3/3 -4/3/3
f -2/3/3 -4/3/3 -5/3/3
f -1/3/3 -3/3/3 -2/3/3
v -3.5 5 3.5
v -3.5 6 3.5
v -3.5 8 3.5
v -1.5 5 3.5
v -1.5 6 3.5
v -1.5 8 3.5
v 1.5 5 3.5
v 1.5 6 3.5
v 1.5 8 3.5
v 3.5 5 3.5
v 3.5 6 3.5
v 3.5 8 3.5
f -9/2/3 -11/2/3 -12/2/3
f -8/1/3 -10/1/3 -11/1/3
f -8/2/3 -11/2/3 -9/2/3
f -7/1/3 -10/1/3 -8/1/3
f -3/2/3 -5/2/3 -6/2/3
f -2/1/3 -4/1/3 -5/1/3
f -2/2/3 -5/2/3 -3/2/3
f -1/1/3 -4/1/3 -2/1/3
v -4.5 5 1.5
v -4.5 8 1.5
v -3.5 5 1.5
v -3.5 8 1.5
v 3.5 5 1.5
v 3.5 6 1.5
v 3.5 8 1.5
v 4.5 5 1.5
v 4.5 8 1.5
f -7/3/3 -8/3/3 -9/3/3
f -6/3/3 -8/3/3 -7/3/3
f -2/3/3 -4/3/3 -5/3/3
f -2/3/3 -3/3/3 -4/3/3
f -1/3/3 -3/3/3 -2/3/3
v -3.5 5 -1.5
v -3.5 8 -1.5
v -2.5 5 -1.5
v -2.5 8 -1.5
v 2.5 5 -1.5
v 2.5 6 -1.5
v 2.5 8 -1.5
v 3.5 0 -1.5
v 3.5 1 -1.5
v 3.5 3 -1.5
v 3.5 5 -1.5
v 3.5 6 -1.5
v 3.5 8 -1.5
v 4.5 0 -1.5
v 4.5 3 -1.5
f -13/1/3 -14/1/3 -15/1/3
f -12/1/3 -14/1/3 -13/1/3
f -5/2/3 -10/2/3 -11/2/3
f -4/1/3 -9/1/3 -10/1/3
f -4/2/3 -10/2/3 -5/2/3
f -3/1/3 -9/1/3 -4/1/3
f -2/4/3 -6/4/3 -7/4/3
f -2/4/3 -7/4/3 -8/4/3
f -1/4/3 -6/4/3 -2/4/3
v -2.5 5 -2.5
v -2.5 8 -2.5
v -1.5 5 -2.5
v -1.5 8 -2.5
v 1.5 5 -2.5
v 1.5 8 -2.5
v 2.5 5 -2.5
v 2.5 6 -2.5
v 2.5 8 -2.5
f -7/1/3 -8/1/3 -9/1/3
f -6/1/3 -8/1/3 -7/1/3
f -3/1/3 -4/1/3 -5/1/3
f -2/1/3 -4/1/3 -3/1/3
f -1/1/3 -4/1/3 -2/1/3
v -4.5 5 -3.5
v -4.5 8 -3.5
v -3.5 1 -3.5
v -3.5 4 -3.5
v -3.5 5 -3.5
v -3.5 8 -3.5
v -1.5 4 -3.5
v -1.5 5 -3.5
v -1.5 8 -3.5
v 1.5 4 -3.5
v 1.5 5 -3.5
v 1.5 8 -3.5
v 2.5 5 -3.5
v 3.5 1 -3.5
v 3.5 4 -3.5
v 3.5 5 -3.5
v 3.5 6 -3.5
v 3.5 8 -3.5
v 4.5 5 -3.5
v 4.5 8 -3.5
f -16/3/3 -19/3/3 -20/3/3
f -15/3/3 -19/3/3 -16/3/3
f -14/3/3 -17/3/3 -18/3/3
f -14/4/3 -16/4/3 -17/4/3
f -13/4/3 -16/4/3 -14/4/3
f -11/3/3 -14/3/3 -18/3/3
f -11/3/3 -12/3/3 -13/3/3
f -11/3/3 -13/3/3 -14/3/3
f -10/3/3 -12/3/3 -11/3/3
f -9/3/3 -12/3/3 -10/3/3
f -8/4/3 -10/4/3 -11/4/3
f -7/3/3 -11/3/3 -18/3/3
f -6/4/3 -8/4/3 -11/4/3
f -6/3/3 -11/3/3 -7/3/3
f -5/4/3 -8/4/3 -6/4/3
f -2/3/3 -3/3/3 -4/3/3
f -2/3/3 -4/3/3 -5/3/3
f -1/3/3 -3/3/3 -2/3/3
v -4.5 5 3.5
v -4.5 8 3.5
v -3.5 1 3.5
v -3.5 4 3.5
v -3.5 5 3.5
v -3.5 6 3.5
v -3.5 8 3.5
v -1.5 4 3.5
v -1.5 5 3.5
v -1.5 6 3.5
v -1.5 8 3.5
v 1.5 4 3.5
v 1.5 5 3.5
v 1.5 6 3.5
v 1.5 8 3.5
v 3.5 1 3.5
v 3.5 4 3.5
v 3.5 5 3.5
v 3.5 6 3.5
v 3.5 8 3.5
v 4.5 5 3.5
v 4.5 8 3.5
f -22/3/4 -21/3/4 -18/3/4
f -18/3/4 -21/3/4 -17/3/4
f -17/3/4 -21/3/4 -16/3/4
f -20/3/4 -19/3/4 -15/3/4
f -19/4/4 -18/4/4 -15/4/4
f -15/4/4 -18/4/4 -14/4/4
f -20/3/4 -15/3/4 -11/3/4
f -13/3/4 -12/3/4 -11/3/4
f -14/3/4 -13/3/4 -11/3/4
f -15/3/4 -14/3/4 -11/3/4
f -11/3/4 -12/3/4 -10/3/4
f -10/3/4 -12/3/4 -9/3/4
f -9/3/4 -12/3/4 -8/3/4
f -20/3/4 -11/3/4 -7/3/4
f -11/4/4 -10/4/4 -6/4/4
f -7/3/4 -11/3/4 -6/3/4
f -6/4/4 -10/4/4 -5/4/4
f -4/3/4 -3/3/4 -2/3/4
f -5/3/4 -4/3/4 -2/3/4
f -2/3/4 -3/3/4 -1/3/4
v -2.5 5 2.5
v -2.5 6 2.5
v -2.5 8 2.5
v -1.5 5 2.5
v -1.5 6 2.5
v -1.5 8 2.5
v 1.5 5 2.5
v 1.5 6 2.5
v 1.5 8 2.5
v 2.5 5 2.5
v 2.5 6 2.5
v 2.5 8 2.5
f -12/2/4 -11/2/4 -9/2/4
f -11/1/4 -10/1/4 -8/1/4
f -9/2/4 -11/2/4 -8/2/4
f -8/1/4 -10/1/4 -7/1/4
f -6/2/4 -5/2/4 -3/2/4
f -5/1/4 -4/1/4 -2/1/4
f -3/2/4 -5/2/4 -2/2/4
f -2/1/4 -4/1/4 -1/1/4
v -3.5 5 1.5
v -3.5 8 1.5
v -2.5 5 1.5
v -2.5 8 1.5
v 2.5 5 1.5
v 2.5 6 1.5
v 2.5 8 1.5
v 3.5 0 1.5
v 3.5 1 1.5
v 3.5 3 1.5
v 3.5 5 1.5
v 3.5 6 1.5
v 3.5 8 1.5
v 4.5 0 1.5
v 4.5 3 1.5
f -15/1/4 -14/1/4 -13/1/4
f -13/1/4 -14/1/4 -12/1/4
f -11/2/4 -10/2/4 -5/2/4
f -10/1/4 -9/1/4 -4/1/4
f -5/2/4 -10/2/4 -4/2/4
f -4/1/4 -9/1/4 -3/1/4
f -7/4/4 -6/4/4 -2/4/4
f -8/4/4 -7/4/4 -2/4/4
f -2/4/4 -6/4/4 -1/4/4
v -4.5 5 -1.5
v -4.5 8 -1.5
v -3.5 5 -1.5
v -3.5 8 -1.5
v 3.5 5 -1.5
v 3.5 6 -1.5
v 3.5 8 -1.5
v 4.5 5 -1.5
v 4.5 8 -1.5
f -9/3/4 -8/3/4 -7/3/4
f -7/3/4 -8/3/4 -6/3/4
f -5/3/4 -4/3/4 -2/3/4
f -4/3/4 -3/3/4 -2/3/4
f -2/3/4 -3/3/4 -1/3/4
v -3.5 5 -3.5
v -3.5 8 -3.5
v -1.5 5 -3.5
v -1.5 8 -3.5
v 1.5 5 -3.5
v 1.5 8 -3.5
v 2.5 5 -3.5
v 2.5 6 -3.5
v 3.5 5 -3.5
v 3.5 6 -3.5
v 3.5 8 -3.5
f -11/1/4 -10/1/4 -9/1/4
f -9/1/4 -10/1/4 -8/1/4
f -7/1/4 -6/1/4 -5/1/4
f -5/1/4 -6/1/4 -4/1/4
f -5/2/4 -4/2/4 -3/2/4
f -4/1/4 -6/1/4 -2/1/4
f -3/2/4 -4/2/4 -2/2/4
f -2/1/4 -6/1/4 -1/1/4
v -4.5 0 -4.5
v -4.5 8 -4.5
v -3.5 4 -4.5
v -3.5 5 -4.5
v -3.5 8 -4.5
v -1.5 4 -4.5
v -1.5 5 -4.5
v -1.5 8 -4.5
v 1.5 4 -4.5
v 1.5 5 -4.5
v 1.5 8 -4.5
v 3.5 4 -4.5
v 3.5 5 -4.5
v 3.5 8 -4.5
v 4.5 0 -4.5
v 4.5 8 -4.5
f -16/3/4 -15/3/4 -14/3/4
f -14/3/4 -15/3/4 -13/3/4
f -13/3/4 -15/3/4 -12/3/4
f -16/3/4 -14/3/4 -11/3/4
f -14/4/4 -13/4/4 -11/4/4
f -11/4/4 -13/4/4 -10/4/4
f -16/3/4 -11/3/4 -8/3/4
f -10/3/4 -9/3/4 -8/3/4
f -11/3/4 -10/3/4 -8/3/4
f -8/3/4 -9/3/4 -7/3/4
f -7/3/4 -9/3/4 -6/3/4
f -16/3/4 -8/3/4 -5/3/4
f -8/4/4 -7/4/4 -5/4/4
f -5/4/4 -7/4/4 -4/4/4
f -16/3/4 -5/3/4 -2/3/4
f -4/3/4 -3/3/4 -2/3/4
f -5/3/4 -4/3/4 -2/3/4
f -2/3/4 -3/3/4 -1/3/4
v -4.5 0 4.5
v 4.5 0 4.5
v 3.5 0 2.5
v 4.5 0 2.5
v 2.5 0 1.5
v 3.5 0 1.5
v 4.5 0 1.5
v 2.5 0 -1.5
v 3.5 0 -1.5
v 4.5 0 -1.5
v 3.5 0 -2.5
v 4.5 0 -2.5
v -4.5 0 -4.5
v 4.5 0 -4.5
f -12/3/5 -13/3/5 -14/3/5
f -11/3/5 -13/3/5 -12/3/5
f -10/3/5 -12/3/5 -14/3/5
f -9/4/5 -11/4/5 -12/4/5
f -9/3/5 -12/3/5 -10/3/5
f -8/4/5 -11/4/5 -9/4/5
f -7/3/5 -10/3/5 -14/3/5
f -7/4/5 -9/4/5 -10/4/5
f -6/4/5 -9/4/5 -7/4/5
f -4/3/5 -6/3/5 -7/3/5
f -4/4/5 -5/4/5 -6/4/5
f -3/4/5 -5/4/5 -4/4/5
f -2/3/5 -7/3/5 -14/3/5
f -2/3/5 -4/3/5 -7/3/5
f -2/3/5 -3/3/5 -4/3/5
f -1/3/5 -3/3/5 -2/3/5
v 3.5 3 1.5
v 4.5 3 1.5
v 3.5 3 -1.5
v 4.5 3 -1.5
f -2/3/5 -3/3/5 -4/3/5
f -1/3/5 -3/3/5 -2/3/5
v -3.5 5 3.5
v -1.5 5 3.5
v 1.5 5 3.5
v 3.5 5 3.5
v -3.5 5 2.5
v -2.5 5 2.5
v -1.5 5 2.5
v 1.5 5 2.5
v 2.5 5 2.5
v -3.5 5 1.5
v -2.5 5 1.5
v 2.5 5 1.5
v 3.5 5 1.5
v -3.5 5 -1.5
v -2.5 5 -1.5
v 2.5 5 -1.5
v 3.5 5 -1.5
v -2.5 5 -2.5
v -1.5 5 -2.5
v 1.5 5 -2.5
v 2.5 5 -2.5
v -3.5 5 -3.5
v -1.5 5 -3.5
v 1.5 5 -3.5
v 2.5 5 -3.5
v 3.5 5 -3.5
f -22/2/5 -25/2/5 -26/2/5
f -21/2/5 -25/2/5 -22/2/5
f -20/2/5 -25/2/5 -21/2/5
f -19/2/5 -23/2/5 -24/2/5
f -18/2/5 -23/2/5 -19/2/5
f -17/1/5 -21/1/5 -22/1/5
f -16/1/5 -21/1/5 -17/1/5
f -15/2/5 -23/2/5 -18/2/5
f -14/2/5 -23/2/5 -15/2/5
f -9/1/5 -12/1/5 -13/1/5
f -6/2/5 -10/2/5 -11/2/5
f -5/1/5 -8/1/5 -9/1/5
f -5/1/5 -9/1/5 -13/1/5
f -4/1/5 -8/1/5 -5/1/5
f -3/1/5 -6/1/5 -7/1/5
f -2/2/5 -10/2/5 -6/2/5
f -2/1/5 -6/1/5 -3/1/5
f -1/2/5 -10/2/5 -2/2/5
v -3.5 1 3.5
v 3.5 1 3.5
v 3.5 1 2.5
v 2.5 1 1.5
v 3.5 1 1.5
v 2.5 1 -1.5
v 3.5 1 -1.5
v 3.5 1 -2.5
v -3.5 1 -3.5
v 3.5 1 -3.5
f -10/3/6 -9/3/6 -8/3/6
f -10/3/6 -8/3/6 -7/3/6
f -7/3/6 -8/3/6 -6/3/6
f -10/3/6 -7/3/6 -5/3/6
f -7/4/6 -6/4/6 -5/4/6
f -5/4/6 -6/4/6 -4/4/6
f -5/3/6 -4/3/6 -3/3/6
f -10/3/6 -5/3/6 -2/3/6
f -5/3/6 -3/3/6 -2/3/6
f -2/3/6 -3/3/6 -1/3/6
v -3.5 5 4.5
v -1.5 5 4.5
v 1.5 5 4.5
v 3.5 5 4.5
v -4.5 5 3.5
v -3.5 5 3.5
v -1.5 5 3.5
v 1.5 5 3.5
v 3.5 5 3.5
v 4.5 5 3.5
v -3.5 5 2.5
v -4.5 5 1.5
v -3.5 5 1.5
v 3.5 5 1.5
v 4.5 5 1.5
v -4.5 5 -1.5
v -3.5 5 -1.5
v 3.5 5 -1.5
v 4.5 5 -1.5
v -4.5 5 -3.5
v -3.5 5 -3.5
v -1.5 5 -3.5
v 1.5 5 -3.5
v 2.5 5 -3.5
v 3.5 5 -3.5
v 4.5 5 -3.5
v -3.5 5 -4.5
v -1.5 5 -4.5
v 1.5 5 -4.5
v 3.5 5 -4.5
f -30/4/6 -29/4/6 -25/4/6
f -25/4/6 -29/4/6 -24/4/6
f -28/4/6 -27/4/6 -23/4/6
f -23/4/6 -27/4/6 -22/4/6
f -26/4/6 -25/4/6 -20/4/6
f -26/4/6 -20/4/6 -19/4/6
f -19/4/6 -20/4/6 -18/4/6
f -22/4/6 -21/4/6 -17/4/6
f -17/4/6 -21/4/6 -16/4/6
f -15/4/6 -14/4/6 -11/4/6
f -11/4/6 -14/4/6 -10/4/6
f -13/4/6 -12/4/6 -6/4/6
f -6/4/6 -12/4/6 -5/4/6
f -10/4/6 -9/4/6 -4/4/6
f -4/4/6 -9/4/6 -3/4/6
f -8/4/6 -7/4/6 -2/4/6
f -7/4/6 -6/4/6 -2/4/6
f -2/4/6 -6/4/6 -1/4/6
v -4.5 8 4.5
v -3.5 8 4.5
v -1.5 8 4.5
v 1.5 8 4.5
v 3.5 8 4.5
v 4.5 8 4.5
v -4.5 8 3.5
v -3.5 8 3.5
v -1.5 8 3.5
v 1.5 8 3.5
v 3.5 8 3.5
v 4.5 8 3.5
v -2.5 8 2.5
v -1.5 8 2.5
v 1.5 8 2.5
v 2.5 8 2.5
v -4.5 8 1.5
v -3.5 8 1.5
v -2.5 8 1.5
v 2.5 8 1.5
v 3.5 8 1.5
v 4.5 8 1.5
v -4.5 8 -1.5
v -3.5 8 -1.5
v -2.5 8 -1.5
v 2.5 8 -1.5
v 3.5 8 -1.5
v 4.5 8 -1.5
v -2.5 8 -2.5
v -1.5 8 -2.5
v 1.5 8 -2.5
v 2.5 8 -2.5
v -4.5 8 -3.5
v -3.5 8 -3.5
v -1.5 8 -3.5
v 1.5 8 -3.5
v 3.5 8 -3.5
v 4.5 8 -3.5
v -4.5 8 -4.5
v -3.5 8 -4.5
v -1.5 8 -4.5
v 1.5 8 -4.5
v 3.5 8 -4.5
v 4.5 8 -4.5
f -44/3/6 -43/3/6 -38/3/6
f -38/3/6 -43/3/6 -37/3/6
f -42/3/6 -41/3/6 -36/3/6
f -36/3/6 -41/3/6 -35/3/6
f -40/3/6 -39/3/6 -34/3/6
f -34/3/6 -39/3/6 -33/3/6
f -37/1/6 -36/1/6 -32/1/6
f -32/1/6 -36/1/6 -31/1/6
f -35/1/6 -34/1/6 -30/1/6
f -30/1/6 -34/1/6 -29/1/6
f -37/1/6 -32/1/6 -27/1/6
f -27/1/6 -32/1/6 -26/1/6
f -29/1/6 -34/1/6 -25/1/6
f -25/1/6 -34/1/6 -24/1/6
f -28/3/6 -27/3/6 -22/3/6
f -22/3/6 -27/3/6 -21/3/6
f -24/3/6 -23/3/6 -18/3/6
f -18/3/6 -23/3/6 -17/3/6
f -21/1/6 -20/1/6 -16/1/6
f -19/1/6 -18/1/6 -13/1/6
f -16/1/6 -15/1/6 -11/1/6
f -21/1/6 -16/1/6 -11/1/6
f -11/1/6 -15/1/6 -10/1/6
f -14/1/6 -13/1/6 -9/1/6
f -13/1/6 -18/1/6 -8/1/6
f -9/1/6 -13/1/6 -8/1/6
f -12/3/6 -11/3/6 -6/3/6
f -6/3/6 -11/3/6 -5/3/6
f -10/3/6 -9/3/6 -4/3/6
f -4/3/6 -9/3/6 -3/3/6
f -8/3/6 -7/3/6 -2/3/6
f -2/3/6 -7/3/6 -1/3/6
